<svg xmlns="http://www.w3.org/2000/svg" width="200" height="200" viewBox="0 0 200 200"><rect width="100%" height="100%" fill="#23A4E4"/><path fill="#101A1D" d="M101.9 125.05h18.55q2 0 3.18 1.12 1.17 1.13 1.17 2.98v7.4H75.2v-4.1q0-1.25.52-2.63.53-1.37 1.68-2.47l21.95-22q2.75-2.8 4.93-5.35 2.17-2.55 3.62-5.05t2.23-5.08q.77-2.57.77-5.42 0-2.6-.75-4.58-.75-1.97-2.12-3.32-1.38-1.35-3.3-2.03-1.93-.67-4.33-.67-2.2 0-4.07.62-1.88.63-3.33 1.75-1.45 1.13-2.45 2.63t-1.5 3.3q-.85 2.3-2.2 3.05t-3.9.35l-6.5-1.15q.75-5.2 2.9-9.13 2.15-3.92 5.38-6.55 3.22-2.62 7.4-3.95 4.17-1.32 8.97-1.32 5 0 9.15 1.47 4.15 1.48 7.1 4.18t4.6 6.5 1.65 8.45q0 4-1.17 7.4-1.18 3.4-3.15 6.5-1.98 3.1-4.63 6t-5.55 5.9L92.8 126.5q2.35-.7 4.68-1.08 2.32-.37 4.42-.37"/></svg>