<svg xmlns="http://www.w3.org/2000/svg" width="200" height="200" viewBox="0 0 200 200"><rect width="100%" height="100%" fill="#23A4E4"/><path fill="#101A1D" d="M83.6 85.15 77.1 84q.75-5.2 2.9-9.13 2.15-3.92 5.38-6.55 3.22-2.62 7.4-3.95 4.17-1.32 8.97-1.32 5 0 9.03 1.43 4.02 1.42 6.87 3.94 2.85 2.53 4.38 5.93 1.52 3.4 1.52 7.35 0 3.45-.77 6.07-.78 2.63-2.23 4.58t-3.6 3.3-4.85 2.25q6.5 2.05 9.7 6.25t3.2 10.55q0 5.4-2 9.55t-5.4 6.97q-3.4 2.83-7.88 4.28-4.47 1.45-9.47 1.45-5.45 0-9.5-1.25T83.7 132t-5.1-6-3.6-8.2l5.45-2.25q2.15-.9 4.02-.48 1.88.43 2.73 2.03.9 1.75 1.98 3.45 1.07 1.7 2.57 3.02 1.5 1.33 3.53 2.15 2.02.83 4.82.83 3.15 0 5.5-1.03 2.35-1.02 3.93-2.67 1.57-1.65 2.35-3.68.77-2.02.77-4.07 0-2.6-.55-4.73-.55-2.12-2.3-3.62t-5.02-2.35q-3.28-.85-8.78-.85v-8.8q4.55-.05 7.55-.85t4.78-2.23q1.77-1.42 2.47-3.42t.7-4.4q0-5.1-2.85-7.75t-7.6-2.65q-2.2 0-4.05.62-1.85.63-3.32 1.75-1.48 1.13-2.48 2.63t-1.5 3.3q-.85 2.3-2.22 3.05-1.38.75-3.88.35"/></svg>