<?xml version="1.0" encoding="UTF-8" standalone="no"?>
<!-- Created with Inkscape (http://www.inkscape.org/) -->

<svg
   width="180.37061mm"
   height="70.869324mm"
   viewBox="0 0 180.37061 70.869324"
   version="1.1"
   id="svg1"
   xml:space="preserve"
   xmlns="http://www.w3.org/2000/svg"
   xmlns:svg="http://www.w3.org/2000/svg"><defs
     id="defs1" /><g
     id="layer1"
     transform="translate(216.76961,-186.25568)"><g
       id="g15"><g
         id="g54"
         transform="translate(11.781691,29.557525)"><g
           id="g44-6-2-4"
           style="display:inline"
           transform="matrix(0.55028166,0,0,0.55028166,-250.72747,79.496211)"><path
             d="m 150.46552,231.13395 a 57.228013,17.484348 0 0 1 14.80706,11.73412 57.228013,17.484348 0 0 1 -57.22795,17.48435 57.228013,17.484348 0 0 1 -57.22797,-17.48435 57.228013,17.484348 0 0 1 14.922616,-11.7228 67.733226,21.326948 0 0 0 -25.439602,16.61012 67.733226,21.326948 0 0 0 67.733016,21.32727 67.733226,21.326948 0 0 0 67.73364,-21.32727 67.733226,21.326948 0 0 0 -25.30081,-16.62144 z"
             style="fill:#23a4e4;fill-opacity:1;stroke-width:0.321551"
             id="path38-8-1-9" /><path
             d="m 139.07997,229.02064 a 41.877103,12.794326 0 0 1 10.83854,8.58705 41.877103,12.794326 0 0 1 -41.87704,12.79485 41.877103,12.794326 0 0 1 -41.877019,-12.79485 41.877103,12.794326 0 0 1 10.919555,-8.57764 49.564387,15.606182 0 0 0 -18.615432,12.15426 49.564387,15.606182 0 0 0 49.564116,15.60655 49.564387,15.606182 0 0 0 49.56473,-15.60655 49.564387,15.606182 0 0 0 -18.51745,-12.16367 z"
             style="fill:#4dd3f7;fill-opacity:1;stroke-width:0.235298"
             id="path37-0-7-1" /></g><g
           id="g52-5-7"
           style="fill:#ffffff;fill-opacity:1"
           transform="translate(-231.58429,-1.0596694)"><path
             style="display:inline;fill:#ffffff;fill-opacity:1;stroke-width:0.145595"
             d="M 3.0329953,181.58691 H 17.306276 l 15.564943,15.54824 v -15.54824 h 11.18959 v 31.06022 h -11.18959 z"
             id="path29-2-1-0" /><path
             style="display:inline;fill:#ffffff;fill-opacity:1;stroke-width:0.145595"
             d="m 48.238631,194.91026 h 17.962404 c 0,0 11.376775,-0.0268 11.376775,-14.90327 0,-9.3064 -6.774491,-12.66452 -11.376775,-12.66452 -2.712762,0 -4.166989,0 -4.166989,0 H 48.238631 v 7.96469 h 14.844238 c 0,0 1.43791,0.0203 1.614685,0.072 0.888099,0.25992 3.563074,1.31361 3.563074,4.57633 0,3.36442 -3.27421,4.94223 -4.036713,4.97965 l -1.456333,0.0716 H 48.238631 Z"
             id="path30-1-7-6" /><path
             d="m 38.651144,166.99695 a 5.4016256,5.4016263 0 0 1 -5.401626,5.40163 5.4016256,5.4016263 0 0 1 5.401626,5.40163 5.4016256,5.4016263 0 0 1 5.40162,-5.40163 5.4016256,5.4016263 0 0 1 -5.40162,-5.40163 z"
             style="display:inline;fill:#ffffff;fill-opacity:1;stroke-width:0.0195874"
             id="path44-5-4-0" /><path
             d="m 27.261741,167.00312 a 3.7454779,3.7454785 0 0 1 -3.745477,3.74548 3.7454779,3.7454785 0 0 1 3.745477,3.74547 3.7454779,3.7454785 0 0 1 3.745474,-3.74547 3.7454779,3.7454785 0 0 1 -3.745474,-3.74548 z"
             style="display:inline;fill:#ffffff;fill-opacity:1;stroke-width:0.0135818"
             id="path44-8-1-1-8" /><path
             d="m 36.707242,157.75782 a 3.4360879,3.4360884 0 0 1 -3.436092,3.43609 3.4360879,3.4360884 0 0 1 3.436092,3.43609 3.4360879,3.4360884 0 0 1 3.436079,-3.43609 3.4360879,3.4360884 0 0 1 -3.436079,-3.43609 z"
             style="display:inline;fill:#ffffff;fill-opacity:1;stroke-width:0.0124599"
             id="path44-8-3-1-7-5" /></g><g
           id="g51-1-3"
           style="fill:#ffffff;fill-opacity:1"
           transform="translate(-231.58429,-1.0596694)"><text
             xml:space="preserve"
             style="font-style:normal;font-variant:normal;font-weight:normal;font-stretch:normal;font-size:23.5866px;font-family:Ubuntu;-inkscape-font-specification:'Ubuntu, Normal';font-variant-ligatures:normal;font-variant-caps:normal;font-variant-numeric:normal;font-variant-east-asian:normal;text-align:start;writing-mode:lr-tb;direction:ltr;text-anchor:start;fill:#ffffff;fill-opacity:1;stroke-width:1.86261"
             x="90.218811"
             y="184.06537"
             id="text47-1-9"><tspan
               id="tspan47-1-4"
               style="font-style:normal;font-variant:normal;font-weight:bold;font-stretch:normal;font-size:23.5866px;font-family:Ubuntu;-inkscape-font-specification:'Ubuntu Bold';fill:#ffffff;fill-opacity:1;stroke-width:1.86261"
               x="90.218811"
               y="184.06537">VECTOR</tspan><tspan
               style="font-style:normal;font-variant:normal;font-weight:bold;font-stretch:normal;font-size:23.5866px;font-family:Ubuntu;-inkscape-font-specification:'Ubuntu Bold';fill:#ffffff;fill-opacity:1;stroke-width:1.86261"
               x="90.218811"
               y="213.54861"
               id="tspan48-7-1" /></text><text
             xml:space="preserve"
             style="font-style:normal;font-variant:normal;font-weight:bold;font-stretch:normal;font-size:34.7257px;font-family:Ubuntu;-inkscape-font-specification:'Ubuntu Bold';font-variant-ligatures:normal;font-variant-caps:normal;font-variant-numeric:normal;font-variant-east-asian:normal;text-align:start;writing-mode:lr-tb;direction:ltr;text-anchor:start;fill:#ffffff;fill-opacity:1;stroke-width:0.104177"
             x="87.607178"
             y="212.16095"
             id="text49-0-5"><tspan
               id="tspan49-4-4"
               style="font-size:34.7257px;fill:#ffffff;fill-opacity:1;stroke-width:0.104177"
               x="87.607178"
               y="212.16095">POOL</tspan></text></g></g></g></g></svg>
