<?xml version="1.0" encoding="UTF-8" standalone="no"?>
<!-- Created with Inkscape (http://www.inkscape.org/) -->

<svg
   version="1.1"
   id="svg1"
   width="93.446671"
   height="121.58131"
   viewBox="0 0 93.446671 121.58131"
   xmlns="http://www.w3.org/2000/svg"
   xmlns:svg="http://www.w3.org/2000/svg">
  <defs
     id="defs1">
    <clipPath
       clipPathUnits="userSpaceOnUse"
       id="clipPath19">
      <path
         d="M 0,500 H 500 V 0 H 0 Z"
         transform="translate(-138.3345,-303.91851)"
         id="path19" />
    </clipPath>
    <clipPath
       clipPathUnits="userSpaceOnUse"
       id="clipPath21">
      <path
         d="M 0,500 H 500 V 0 H 0 Z"
         transform="translate(-126.8628,-313.20561)"
         id="path21" />
    </clipPath>
    <clipPath
       clipPathUnits="userSpaceOnUse"
       id="clipPath23">
      <path
         d="M 0,500 H 500 V 0 H 0 Z"
         transform="translate(-120.2568,-332.28611)"
         id="path23" />
    </clipPath>
    <clipPath
       clipPathUnits="userSpaceOnUse"
       id="clipPath24">
      <path
         d="M 68.2495,367.329 H 138.334 V 297.244 H 68.2495 Z"
         transform="translate(-98.487805,-297.24371)"
         id="path24" />
    </clipPath>
    <clipPath
       clipPathUnits="userSpaceOnUse"
       id="clipPath25">
      <path
         d="M 68.2495,367.329 H 138.334 V 297.244 H 68.2495 Z"
         transform="translate(-131.6602,-367.32861)"
         id="path25" />
    </clipPath>
    <clipPath
       clipPathUnits="userSpaceOnUse"
       id="clipPath28">
      <path
         d="M 0,500 H 500 V 0 H 0 Z"
         transform="matrix(1.3333333,0,0,-1.3333333,0,666.66667)"
         id="path28" />
    </clipPath>
  </defs>
  <g
     id="layer-MC1"
     transform="translate(-90.999328,-162.82802)">
    <path
       id="path2"
       d="m 75.348,356.778 h -3.391 v 21.101 h 3.391 z"
       style="fill:#e6e7e8;fill-opacity:1;fill-rule:nonzero;stroke:none"
       transform="matrix(1.3333333,0,0,-1.3333333,0,666.66667)" />
    <path
       id="path3"
       d="m 83.816,356.778 h -3.391 v 21.101 h 3.391 z"
       style="fill:#e6e7e8;fill-opacity:1;fill-rule:nonzero;stroke:none"
       transform="matrix(1.3333333,0,0,-1.3333333,0,666.66667)" />
    <path
       id="path4"
       d="m 92.285,356.778 h -3.392 v 21.101 h 3.392 z"
       style="fill:#e6e7e8;fill-opacity:1;fill-rule:nonzero;stroke:none"
       transform="matrix(1.3333333,0,0,-1.3333333,0,666.66667)" />
    <path
       id="path5"
       d="m 100.753,356.778 h -3.391 v 21.101 h 3.391 z"
       style="fill:#e6e7e8;fill-opacity:1;fill-rule:nonzero;stroke:none"
       transform="matrix(1.3333333,0,0,-1.3333333,0,666.66667)" />
    <path
       id="path6"
       d="m 109.222,356.778 h -3.391 v 21.101 h 3.391 z"
       style="fill:#e6e7e8;fill-opacity:1;fill-rule:nonzero;stroke:none"
       transform="matrix(1.3333333,0,0,-1.3333333,0,666.66667)" />
    <path
       id="path7"
       d="m 117.69,356.778 h -3.392 v 21.101 h 3.392 z"
       style="fill:#e6e7e8;fill-opacity:1;fill-rule:nonzero;stroke:none"
       transform="matrix(1.3333333,0,0,-1.3333333,0,666.66667)" />
    <path
       id="path8"
       d="m 126.16,356.778 h -3.392 v 21.101 h 3.392 z"
       style="fill:#e6e7e8;fill-opacity:1;fill-rule:nonzero;stroke:none"
       transform="matrix(1.3333333,0,0,-1.3333333,0,666.66667)" />
    <path
       id="path9"
       d="m 134.627,356.778 h -3.391 v 21.101 h 3.391 z"
       style="fill:#e6e7e8;fill-opacity:1;fill-rule:nonzero;stroke:none"
       transform="matrix(1.3333333,0,0,-1.3333333,0,666.66667)" />
    <path
       id="path10"
       d="m 75.348,286.693 h -3.391 v 21.101 h 3.391 z"
       style="fill:#e6e7e8;fill-opacity:1;fill-rule:nonzero;stroke:none"
       transform="matrix(1.3333333,0,0,-1.3333333,0,666.66667)" />
    <path
       id="path11"
       d="m 83.816,286.693 h -3.391 v 21.101 h 3.391 z"
       style="fill:#e6e7e8;fill-opacity:1;fill-rule:nonzero;stroke:none"
       transform="matrix(1.3333333,0,0,-1.3333333,0,666.66667)" />
    <path
       id="path12"
       d="m 92.285,286.693 h -3.392 v 21.101 h 3.392 z"
       style="fill:#e6e7e8;fill-opacity:1;fill-rule:nonzero;stroke:none"
       transform="matrix(1.3333333,0,0,-1.3333333,0,666.66667)" />
    <path
       id="path13"
       d="m 100.753,286.693 h -3.391 v 21.101 h 3.391 z"
       style="fill:#e6e7e8;fill-opacity:1;fill-rule:nonzero;stroke:none"
       transform="matrix(1.3333333,0,0,-1.3333333,0,666.66667)" />
    <path
       id="path14"
       d="m 109.222,286.693 h -3.391 v 21.101 h 3.391 z"
       style="fill:#e6e7e8;fill-opacity:1;fill-rule:nonzero;stroke:none"
       transform="matrix(1.3333333,0,0,-1.3333333,0,666.66667)" />
    <path
       id="path15"
       d="m 117.69,286.693 h -3.392 v 21.101 h 3.392 z"
       style="fill:#e6e7e8;fill-opacity:1;fill-rule:nonzero;stroke:none"
       transform="matrix(1.3333333,0,0,-1.3333333,0,666.66667)" />
    <path
       id="path16"
       d="m 126.16,286.693 h -3.392 v 21.101 h 3.392 z"
       style="fill:#e6e7e8;fill-opacity:1;fill-rule:nonzero;stroke:none"
       transform="matrix(1.3333333,0,0,-1.3333333,0,666.66667)" />
    <path
       id="path17"
       d="m 134.627,286.693 h -3.391 v 21.101 h 3.391 z"
       style="fill:#e6e7e8;fill-opacity:1;fill-rule:nonzero;stroke:none"
       transform="matrix(1.3333333,0,0,-1.3333333,0,666.66667)" />
    <path
       id="path18"
       d="m 0,0 c 0,-3.687 -2.988,-6.675 -6.674,-6.675 h -56.737 c -3.686,0 -6.674,2.988 -6.674,6.675 v 56.735 c 0,3.687 2.988,6.675 6.674,6.675 H -6.674 C -2.988,63.41 0,60.422 0,56.735 Z"
       style="fill:#4d4753;fill-opacity:1;fill-rule:nonzero;stroke:none"
       transform="matrix(1.3333333,0,0,-1.3333333,184.446,261.442)"
       clip-path="url(#clipPath19)" />
    <path
       id="path20"
       d="m 0,0 c 0,-2.479 -2.012,-4.49 -4.491,-4.49 h -38.161 c -2.479,0 -4.489,2.011 -4.489,4.49 v 38.161 c 0,2.479 2.01,4.489 4.489,4.489 H -4.491 C -2.012,42.65 0,40.64 0,38.161 Z"
       style="fill:#e6e7e8;fill-opacity:1;fill-rule:nonzero;stroke:none"
       transform="matrix(1.3333333,0,0,-1.3333333,169.1504,249.0592)"
       clip-path="url(#clipPath21)" />
    <path
       id="path22"
       d="m 0,0 c 0,-9.37 -7.595,-16.965 -16.965,-16.965 -9.37,0 -16.966,7.595 -16.966,16.965 0,9.369 7.596,16.965 16.966,16.965 C -7.595,16.965 0,9.369 0,0"
       style="fill:#3eb4e6;fill-opacity:1;fill-rule:nonzero;stroke:none"
       transform="matrix(1.3333333,0,0,-1.3333333,160.3424,223.61853)"
       clip-path="url(#clipPath23)" />
    <g
       opacity="0.199997"
       id="g27"
       clip-path="url(#clipPath28)">
      <path
         d="M 0,0 39.847,39.847 V 63.41 c 0,0.965 -0.21,1.88 -0.578,2.708 L -26.272,0.578 C -25.444,0.209 -24.529,0 -23.564,0 Z"
         style="fill:#ffffff;fill-opacity:1;fill-rule:nonzero;stroke:none"
         transform="matrix(1.3333333,0,0,-1.3333333,131.31707,270.34173)"
         clip-path="url(#clipPath24)"
         id="path26" />
      <path
         d="m 0,0 h -38.201 l -25.21,-25.21 v -38.2 c 0,-0.169 0.013,-0.335 0.026,-0.501 L 0.5,-0.025 C 0.334,-0.013 0.169,0 0,0"
         style="fill:#ffffff;fill-opacity:1;fill-rule:nonzero;stroke:none"
         transform="matrix(1.3333333,0,0,-1.3333333,175.54693,176.8952)"
         clip-path="url(#clipPath25)"
         id="path27" />
    </g>
  </g>
</svg>
