<?xml version="1.0" encoding="UTF-8" standalone="no"?>
<!-- Created with Inkscape (http://www.inkscape.org/) -->

<svg
   version="1.1"
   id="svg1"
   width="136.33069"
   height="104.61867"
   viewBox="0 0 136.33069 104.61867"
   xmlns="http://www.w3.org/2000/svg"
   xmlns:svg="http://www.w3.org/2000/svg">
  <defs
     id="defs1">
    <clipPath
       clipPathUnits="userSpaceOnUse"
       id="clipPath39">
      <path
         d="M 0,500 H 500 V 0 H 0 Z"
         transform="translate(-407.31541,-296.4141)"
         id="path39" />
    </clipPath>
    <clipPath
       clipPathUnits="userSpaceOnUse"
       id="clipPath41">
      <path
         d="M 0,500 H 500 V 0 H 0 Z"
         transform="translate(-407.74021,-349.66891)"
         id="path41" />
    </clipPath>
    <clipPath
       clipPathUnits="userSpaceOnUse"
       id="clipPath43">
      <path
         d="m 354.733,347.455 c -7.959,-3.748 -13.472,-11.84 -13.472,-21.221 v 0 c 0,-12.949 10.496,-23.446 23.445,-23.446 v 0 c 3.837,0 7.455,0.928 10.652,2.562 v 0 c 3.198,-1.634 6.816,-2.562 10.653,-2.562 v 0 c 3.837,0 7.455,0.928 10.653,2.562 v 0 c 3.196,-1.634 6.816,-2.562 10.652,-2.562 v 0 c 12.949,0 23.446,10.497 23.446,23.446 v 0 c 0,12.807 -10.269,23.207 -23.021,23.435 v 0 c -3.67,10.945 -14.002,18.835 -26.183,18.835 v 0 c -12.989,0 -23.876,-8.968 -26.825,-21.049"
         transform="translate(-429.35841,-321.54641)"
         id="path43" />
    </clipPath>
    <clipPath
       clipPathUnits="userSpaceOnUse"
       id="clipPath45">
      <path
         d="m 354.733,347.455 c -7.959,-3.748 -13.472,-11.84 -13.472,-21.221 v 0 c 0,-12.949 10.496,-23.446 23.445,-23.446 v 0 c 3.837,0 7.455,0.928 10.652,2.562 v 0 c 3.198,-1.634 6.816,-2.562 10.653,-2.562 v 0 c 3.837,0 7.455,0.928 10.653,2.562 v 0 c 3.196,-1.634 6.816,-2.562 10.652,-2.562 v 0 c 12.949,0 23.446,10.497 23.446,23.446 v 0 c 0,12.807 -10.269,23.207 -23.021,23.435 v 0 c -3.67,10.945 -14.002,18.835 -26.183,18.835 v 0 c -12.989,0 -23.876,-8.968 -26.825,-21.049"
         transform="translate(-381.55761,-368.50441)"
         id="path45" />
    </clipPath>
    <clipPath
       clipPathUnits="userSpaceOnUse"
       id="clipPath46">
      <path
         d="M 324.38,388.088 H 440.569 V 273.628 H 324.38 Z"
         transform="translate(-440.56931,-351.39651)"
         id="path46" />
    </clipPath>
    <clipPath
       clipPathUnits="userSpaceOnUse"
       id="clipPath48">
      <path
         d="m 354.733,347.455 c -7.959,-3.748 -13.472,-11.84 -13.472,-21.221 v 0 c 0,-12.949 10.496,-23.446 23.445,-23.446 v 0 c 3.837,0 7.455,0.928 10.652,2.562 v 0 c 3.198,-1.634 6.816,-2.562 10.653,-2.562 v 0 c 3.837,0 7.455,0.928 10.653,2.562 v 0 c 3.196,-1.634 6.816,-2.562 10.652,-2.562 v 0 c 12.949,0 23.446,10.497 23.446,23.446 v 0 c 0,12.807 -10.269,23.207 -23.021,23.435 v 0 c -3.67,10.945 -14.002,18.835 -26.183,18.835 v 0 c -12.989,0 -23.876,-8.968 -26.825,-21.049"
         transform="matrix(1.3333333,0,0,-1.3333333,0,666.66667)"
         id="path48" />
    </clipPath>
  </defs>
  <g
     id="layer-MC1"
     transform="translate(-446.5152,-166.82921)">
    <path
       id="path38"
       d="M 0,0 C -3.633,0 -7.262,0.675 -10.651,1.97 -14.043,0.675 -17.671,0 -21.305,0 -24.937,0 -28.565,0.675 -31.957,1.97 -35.347,0.675 -38.976,0 -42.609,0 c -16.442,0 -29.82,13.377 -29.82,29.82 0,10.485 5.595,20.221 14.477,25.568 4.626,13.724 17.471,23.076 32.194,23.076 13.19,0 25.017,-7.576 30.623,-19.232 C 18.968,56.883 29.819,44.498 29.819,29.82 29.819,13.377 16.442,0 0,0"
       style="fill:#4d4753;fill-opacity:1;fill-rule:nonzero;stroke:none"
       transform="matrix(1.3333333,0,0,-1.3333333,543.0872,271.44787)"
       clip-path="url(#clipPath39)" />
    <path
       id="path40"
       d="m 0,0 c -3.669,10.945 -14.001,18.835 -26.183,18.835 -12.988,0 -23.876,-8.968 -26.824,-21.049 -7.96,-3.747 -13.472,-11.839 -13.472,-21.221 0,-12.949 10.496,-23.446 23.445,-23.446 3.837,0 7.455,0.928 10.652,2.562 3.198,-1.634 6.816,-2.562 10.653,-2.562 3.837,0 7.455,0.928 10.653,2.562 3.196,-1.634 6.815,-2.562 10.651,-2.562 12.949,0 23.446,10.497 23.446,23.446 C 23.021,-10.628 12.753,-0.228 0,0"
       style="fill:#3eb4e6;fill-opacity:1;fill-rule:nonzero;stroke:none"
       transform="matrix(1.3333333,0,0,-1.3333333,543.6536,200.44147)"
       clip-path="url(#clipPath41)" />
    <path
       id="path42"
       d="m 0,0 c 0,2.107 -1.708,3.814 -3.814,3.814 -2.108,0 -3.815,-1.707 -3.815,-3.814 0,-1.418 0.782,-2.641 1.931,-3.298 v -29.56 h 3.767 v 29.56 C -0.783,-2.641 0,-1.418 0,0 m -15.542,3.814 c -2.107,0 -3.815,-1.707 -3.815,-3.814 0,-1.418 0.783,-2.641 1.93,-3.298 v -29.56 h 3.768 v 29.56 c 1.148,0.657 1.93,1.88 1.93,3.298 0,2.107 -1.707,3.814 -3.813,3.814 m -11.728,0 c -2.107,0 -3.815,-1.707 -3.815,-3.814 0,-1.418 0.782,-2.641 1.931,-3.298 v -29.56 h 3.767 v 29.56 c 1.149,0.657 1.931,1.88 1.931,3.298 0,2.107 -1.708,3.814 -3.814,3.814 m -4.756,11.427 v 29.56 h -3.768 v -29.56 c -1.148,-0.657 -1.931,-1.88 -1.931,-3.298 0,-2.107 1.707,-3.815 3.814,-3.815 2.107,0 3.815,1.708 3.815,3.815 0,1.418 -0.783,2.64 -1.93,3.298 m 11.727,0 v 29.56 h -3.767 v -29.56 c -1.149,-0.657 -1.931,-1.88 -1.931,-3.298 0,-2.107 1.708,-3.815 3.813,-3.815 2.108,0 3.816,1.708 3.816,3.815 0,1.418 -0.782,2.64 -1.931,3.298 m 13.658,-3.298 c 0,-2.107 -1.707,-3.815 -3.814,-3.815 -2.107,0 -3.815,1.708 -3.815,3.815 0,1.418 0.784,2.641 1.931,3.298 v 29.56 h 3.768 v -29.56 c 1.148,-0.658 1.93,-1.88 1.93,-3.298"
       style="fill:#ffffff;fill-opacity:1;fill-rule:nonzero;stroke:none"
       transform="matrix(1.3333333,0,0,-1.3333333,572.47787,237.93813)"
       clip-path="url(#clipPath43)" />
    <path
       id="path44"
       d="m 0,0 c -12.988,0 -23.876,-8.969 -26.824,-21.049 -7.96,-3.748 -13.473,-11.84 -13.473,-21.222 0,-12.949 10.496,-23.445 23.445,-23.445 3.837,0 7.456,0.927 10.653,2.562 0.98,-0.502 2.005,-0.928 3.058,-1.289 L 19.317,-7.899 C 14.339,-3.017 7.525,0 0,0"
       style="fill:#e6e7e8;fill-opacity:1;fill-rule:nonzero;stroke:none"
       transform="matrix(1.3333333,0,0,-1.3333333,508.74347,175.32747)"
       clip-path="url(#clipPath45)" />
    <g
       opacity="0.399994"
       id="g47"
       clip-path="url(#clipPath48)">
      <path
         d="m 0,0 -13.423,13.424 -77.77,-77.768 13.425,-13.424 z m -96.825,-60.44 -19.364,19.364 77.769,77.768 19.362,-19.363 z"
         style="fill:#ffffff;fill-opacity:1;fill-rule:nonzero;stroke:none"
         transform="matrix(1.3333333,0,0,-1.3333333,587.42573,198.138)"
         clip-path="url(#clipPath46)"
         id="path47" />
    </g>
  </g>
</svg>
