<?xml version="1.0" encoding="UTF-8" standalone="no"?>
<!-- Created with Inkscape (http://www.inkscape.org/) -->

<svg
   version="1.1"
   id="svg1"
   width="93.101318"
   height="82.362"
   viewBox="0 0 93.101319 82.362"
   xmlns="http://www.w3.org/2000/svg"
   xmlns:svg="http://www.w3.org/2000/svg">
  <defs
     id="defs1">
    <clipPath
       clipPathUnits="userSpaceOnUse"
       id="clipPath284">
      <path
         d="M 0,500 H 500 V 0 H 0 Z"
         transform="translate(-415.67191,-59.980499)"
         id="path284" />
    </clipPath>
    <clipPath
       clipPathUnits="userSpaceOnUse"
       id="clipPath286">
      <path
         d="M 0,500 H 500 V 0 H 0 Z"
         transform="translate(-363.84961,-102.4922)"
         id="path286" />
    </clipPath>
    <clipPath
       clipPathUnits="userSpaceOnUse"
       id="clipPath288">
      <path
         d="M 0,500 H 500 V 0 H 0 Z"
         transform="translate(-358.84081,-99.3594)"
         id="path288" />
    </clipPath>
    <clipPath
       clipPathUnits="userSpaceOnUse"
       id="clipPath290">
      <path
         d="M 0,500 H 500 V 0 H 0 Z"
         transform="translate(-385.76761,-102.4922)"
         id="path290" />
    </clipPath>
    <clipPath
       clipPathUnits="userSpaceOnUse"
       id="clipPath292">
      <path
         d="M 0,500 H 500 V 0 H 0 Z"
         transform="translate(-380.75781,-99.3594)"
         id="path292" />
    </clipPath>
    <clipPath
       clipPathUnits="userSpaceOnUse"
       id="clipPath294">
      <path
         d="M 0,500 H 500 V 0 H 0 Z"
         transform="translate(-407.68651,-102.4922)"
         id="path294" />
    </clipPath>
    <clipPath
       clipPathUnits="userSpaceOnUse"
       id="clipPath296">
      <path
         d="M 0,500 H 500 V 0 H 0 Z"
         transform="translate(-402.67771,-99.3594)"
         id="path296" />
    </clipPath>
    <clipPath
       clipPathUnits="userSpaceOnUse"
       id="clipPath298">
      <path
         d="M 0,500 H 500 V 0 H 0 Z"
         transform="translate(-363.84961,-83.703105)"
         id="path298" />
    </clipPath>
    <clipPath
       clipPathUnits="userSpaceOnUse"
       id="clipPath300">
      <path
         d="M 0,500 H 500 V 0 H 0 Z"
         transform="translate(-358.84081,-80.572305)"
         id="path300" />
    </clipPath>
    <clipPath
       clipPathUnits="userSpaceOnUse"
       id="clipPath302">
      <path
         d="M 0,500 H 500 V 0 H 0 Z"
         transform="translate(-385.76761,-83.703105)"
         id="path302" />
    </clipPath>
    <clipPath
       clipPathUnits="userSpaceOnUse"
       id="clipPath304">
      <path
         d="M 0,500 H 500 V 0 H 0 Z"
         transform="translate(-380.75781,-80.572305)"
         id="path304" />
    </clipPath>
    <clipPath
       clipPathUnits="userSpaceOnUse"
       id="clipPath306">
      <path
         d="M 0,500 H 500 V 0 H 0 Z"
         transform="translate(-407.68651,-83.703105)"
         id="path306" />
    </clipPath>
    <clipPath
       clipPathUnits="userSpaceOnUse"
       id="clipPath308">
      <path
         d="M 0,500 H 500 V 0 H 0 Z"
         transform="translate(-402.67771,-80.572305)"
         id="path308" />
    </clipPath>
    <clipPath
       clipPathUnits="userSpaceOnUse"
       id="clipPath310">
      <path
         d="M 0,500 H 500 V 0 H 0 Z"
         transform="translate(-363.84961,-64.916002)"
         id="path310" />
    </clipPath>
    <clipPath
       clipPathUnits="userSpaceOnUse"
       id="clipPath312">
      <path
         d="M 0,500 H 500 V 0 H 0 Z"
         transform="translate(-358.84081,-61.785202)"
         id="path312" />
    </clipPath>
    <clipPath
       clipPathUnits="userSpaceOnUse"
       id="clipPath314">
      <path
         d="M 0,500 H 500 V 0 H 0 Z"
         transform="translate(-385.76761,-64.916002)"
         id="path314" />
    </clipPath>
    <clipPath
       clipPathUnits="userSpaceOnUse"
       id="clipPath316">
      <path
         d="M 0,500 H 500 V 0 H 0 Z"
         transform="translate(-380.75781,-61.785202)"
         id="path316" />
    </clipPath>
    <clipPath
       clipPathUnits="userSpaceOnUse"
       id="clipPath318">
      <path
         d="M 0,500 H 500 V 0 H 0 Z"
         transform="translate(-407.68651,-64.916002)"
         id="path318" />
    </clipPath>
    <clipPath
       clipPathUnits="userSpaceOnUse"
       id="clipPath320">
      <path
         d="M 0,500 H 500 V 0 H 0 Z"
         transform="translate(-402.67771,-61.785202)"
         id="path320" />
    </clipPath>
    <clipPath
       clipPathUnits="userSpaceOnUse"
       id="clipPath322">
      <path
         d="M 0,500 H 500 V 0 H 0 Z"
         transform="translate(-404.55661,-64.132799)"
         id="path322" />
    </clipPath>
    <clipPath
       clipPathUnits="userSpaceOnUse"
       id="clipPath323">
      <path
         d="m 345.846,114.588 h 67.957 V 57.1094 h -67.957 z"
         transform="translate(-413.80271,-112.2383)"
         id="path323" />
    </clipPath>
    <clipPath
       clipPathUnits="userSpaceOnUse"
       id="clipPath325">
      <path
         d="M 0,500 H 500 V 0 H 0 Z"
         transform="matrix(1.3333333,0,0,-1.3333333,0,666.66667)"
         id="path325" />
    </clipPath>
  </defs>
  <g
     id="layer-MC1"
     transform="translate(-461.12787,-513.88269)">
    <path
       id="path283"
       d="m 0,0 c 0,-3.957 -3.207,-7.164 -7.162,-7.164 h -55.503 c -3.954,0 -7.161,3.207 -7.161,7.164 v 47.445 c 0,3.955 3.207,7.162 7.161,7.162 H -7.162 C -3.207,54.607 0,51.4 0,47.445 Z"
       style="fill:#4d4753;fill-opacity:1;fill-rule:nonzero;stroke:none"
       transform="matrix(1.3333333,0,0,-1.3333333,554.2292,586.69267)"
       clip-path="url(#clipPath284)" />
    <path
       id="path285"
       d="m 0,0 c 0,-2.77 -2.243,-5.012 -5.009,-5.012 -2.767,0 -5.01,2.242 -5.01,5.012 0,2.766 2.243,5.008 5.01,5.008 C -2.243,5.008 0,2.766 0,0"
       style="fill:#ffffff;fill-opacity:1;fill-rule:nonzero;stroke:none"
       transform="matrix(1.3333333,0,0,-1.3333333,485.1328,530.0104)"
       clip-path="url(#clipPath286)" />
    <path
       id="path287"
       d="m 0,0 c -1.727,0 -3.132,1.404 -3.132,3.133 0,1.724 1.405,3.129 3.132,3.129 1.726,0 3.131,-1.405 3.131,-3.129 C 3.131,1.404 1.726,0 0,0"
       style="fill:#e6e7e8;fill-opacity:1;fill-rule:nonzero;stroke:none"
       transform="matrix(1.3333333,0,0,-1.3333333,478.4544,534.18747)"
       clip-path="url(#clipPath288)" />
    <path
       id="path289"
       d="m 0,0 c 0,-2.77 -2.241,-5.012 -5.01,-5.012 -2.766,0 -5.009,2.242 -5.009,5.012 0,2.766 2.243,5.008 5.009,5.008 C -2.241,5.008 0,2.766 0,0"
       style="fill:#ffffff;fill-opacity:1;fill-rule:nonzero;stroke:none"
       transform="matrix(1.3333333,0,0,-1.3333333,514.3568,530.0104)"
       clip-path="url(#clipPath290)" />
    <path
       id="path291"
       d="m 0,0 c -1.726,0 -3.129,1.404 -3.129,3.133 0,1.724 1.403,3.129 3.129,3.129 1.728,0 3.131,-1.405 3.131,-3.129 C 3.131,1.404 1.728,0 0,0"
       style="fill:#e6e7e8;fill-opacity:1;fill-rule:nonzero;stroke:none"
       transform="matrix(1.3333333,0,0,-1.3333333,507.67707,534.18747)"
       clip-path="url(#clipPath292)" />
    <path
       id="path293"
       d="m 0,0 c 0,-2.77 -2.242,-5.012 -5.009,-5.012 -2.767,0 -5.012,2.242 -5.012,5.012 0,2.766 2.245,5.008 5.012,5.008 C -2.242,5.008 0,2.766 0,0"
       style="fill:#ffffff;fill-opacity:1;fill-rule:nonzero;stroke:none"
       transform="matrix(1.3333333,0,0,-1.3333333,543.582,530.0104)"
       clip-path="url(#clipPath294)" />
    <path
       id="path295"
       d="m 0,0 c -1.727,0 -3.132,1.404 -3.132,3.133 0,1.724 1.405,3.129 3.132,3.129 1.726,0 3.131,-1.405 3.131,-3.129 C 3.131,1.404 1.726,0 0,0"
       style="fill:#27aae1;fill-opacity:1;fill-rule:nonzero;stroke:none"
       transform="matrix(1.3333333,0,0,-1.3333333,536.9036,534.18747)"
       clip-path="url(#clipPath296)" />
    <path
       id="path297"
       d="m 0,0 c 0,-2.768 -2.243,-5.01 -5.009,-5.01 -2.767,0 -5.01,2.242 -5.01,5.01 0,2.766 2.243,5.008 5.01,5.008 C -2.243,5.008 0,2.766 0,0"
       style="fill:#ffffff;fill-opacity:1;fill-rule:nonzero;stroke:none"
       transform="matrix(1.3333333,0,0,-1.3333333,485.1328,555.06253)"
       clip-path="url(#clipPath298)" />
    <path
       id="path299"
       d="m 0,0 c -1.727,0 -3.132,1.406 -3.132,3.131 0,1.726 1.405,3.131 3.132,3.131 1.726,0 3.131,-1.405 3.131,-3.131 C 3.131,1.406 1.726,0 0,0"
       style="fill:#27aae1;fill-opacity:1;fill-rule:nonzero;stroke:none"
       transform="matrix(1.3333333,0,0,-1.3333333,478.4544,559.23693)"
       clip-path="url(#clipPath300)" />
    <path
       id="path301"
       d="m 0,0 c 0,-2.768 -2.241,-5.01 -5.01,-5.01 -2.766,0 -5.009,2.242 -5.009,5.01 0,2.766 2.243,5.008 5.009,5.008 C -2.241,5.008 0,2.766 0,0"
       style="fill:#ffffff;fill-opacity:1;fill-rule:nonzero;stroke:none"
       transform="matrix(1.3333333,0,0,-1.3333333,514.3568,555.06253)"
       clip-path="url(#clipPath302)" />
    <path
       id="path303"
       d="m 0,0 c -1.726,0 -3.129,1.406 -3.129,3.131 0,1.726 1.403,3.131 3.129,3.131 1.728,0 3.131,-1.405 3.131,-3.131 C 3.131,1.406 1.728,0 0,0"
       style="fill:#e6e7e8;fill-opacity:1;fill-rule:nonzero;stroke:none"
       transform="matrix(1.3333333,0,0,-1.3333333,507.67707,559.23693)"
       clip-path="url(#clipPath304)" />
    <path
       id="path305"
       d="m 0,0 c 0,-2.768 -2.242,-5.01 -5.009,-5.01 -2.767,0 -5.012,2.242 -5.012,5.01 0,2.766 2.245,5.008 5.012,5.008 C -2.242,5.008 0,2.766 0,0"
       style="fill:#ffffff;fill-opacity:1;fill-rule:nonzero;stroke:none"
       transform="matrix(1.3333333,0,0,-1.3333333,543.582,555.06253)"
       clip-path="url(#clipPath306)" />
    <path
       id="path307"
       d="m 0,0 c -1.727,0 -3.132,1.406 -3.132,3.131 0,1.726 1.405,3.131 3.132,3.131 1.726,0 3.131,-1.405 3.131,-3.131 C 3.131,1.406 1.726,0 0,0"
       style="fill:#e6e7e8;fill-opacity:1;fill-rule:nonzero;stroke:none"
       transform="matrix(1.3333333,0,0,-1.3333333,536.9036,559.23693)"
       clip-path="url(#clipPath308)" />
    <path
       id="path309"
       d="m 0,0 c 0,-2.768 -2.243,-5.01 -5.009,-5.01 -2.767,0 -5.01,2.242 -5.01,5.01 0,2.766 2.243,5.008 5.01,5.008 C -2.243,5.008 0,2.766 0,0"
       style="fill:#ffffff;fill-opacity:1;fill-rule:nonzero;stroke:none"
       transform="matrix(1.3333333,0,0,-1.3333333,485.1328,580.112)"
       clip-path="url(#clipPath310)" />
    <path
       id="path311"
       d="m 0,0 c -1.727,0 -3.132,1.406 -3.132,3.131 0,1.726 1.405,3.133 3.132,3.133 1.726,0 3.131,-1.407 3.131,-3.133 C 3.131,1.406 1.726,0 0,0"
       style="fill:#e6e7e8;fill-opacity:1;fill-rule:nonzero;stroke:none"
       transform="matrix(1.3333333,0,0,-1.3333333,478.4544,584.2864)"
       clip-path="url(#clipPath312)" />
    <path
       id="path313"
       d="m 0,0 c 0,-2.768 -2.241,-5.01 -5.01,-5.01 -2.766,0 -5.009,2.242 -5.009,5.01 0,2.766 2.243,5.008 5.009,5.008 C -2.241,5.008 0,2.766 0,0"
       style="fill:#ffffff;fill-opacity:1;fill-rule:nonzero;stroke:none"
       transform="matrix(1.3333333,0,0,-1.3333333,514.3568,580.112)"
       clip-path="url(#clipPath314)" />
    <path
       id="path315"
       d="m 0,0 c -1.726,0 -3.129,1.406 -3.129,3.131 0,1.726 1.403,3.133 3.129,3.133 1.728,0 3.131,-1.407 3.131,-3.133 C 3.131,1.406 1.728,0 0,0"
       style="fill:#e6e7e8;fill-opacity:1;fill-rule:nonzero;stroke:none"
       transform="matrix(1.3333333,0,0,-1.3333333,507.67707,584.2864)"
       clip-path="url(#clipPath316)" />
    <path
       id="path317"
       d="m 0,0 c 0,-2.768 -2.242,-5.01 -5.009,-5.01 -2.767,0 -5.012,2.242 -5.012,5.01 0,2.766 2.245,5.008 5.012,5.008 C -2.242,5.008 0,2.766 0,0"
       style="fill:#ffffff;fill-opacity:1;fill-rule:nonzero;stroke:none"
       transform="matrix(1.3333333,0,0,-1.3333333,543.582,580.112)"
       clip-path="url(#clipPath318)" />
    <path
       id="path319"
       d="m 0,0 c -1.727,0 -3.132,1.406 -3.132,3.131 0,1.726 1.405,3.133 3.132,3.133 1.726,0 3.131,-1.407 3.131,-3.133 C 3.131,1.406 1.726,0 0,0"
       style="fill:#e6e7e8;fill-opacity:1;fill-rule:nonzero;stroke:none"
       transform="matrix(1.3333333,0,0,-1.3333333,536.9036,584.2864)"
       clip-path="url(#clipPath320)" />
    <path
       id="path321"
       d="M 0,0 H -45.872 V 1.877 H -1.879 V 17.848 H -24.737 V 37.887 H -45.09 v 1.879 h 22.232 V 19.725 H 0 Z"
       style="fill:#e6e7e8;fill-opacity:1;fill-rule:nonzero;stroke:none"
       transform="matrix(1.3333333,0,0,-1.3333333,539.4088,581.15627)"
       clip-path="url(#clipPath322)" />
    <g
       opacity="0.199997"
       id="g324"
       clip-path="url(#clipPath325)">
      <path
         d="m 0,0 c -1.311,1.439 -3.194,2.35 -5.293,2.35 h -55.503 c -3.954,0 -7.161,-3.207 -7.161,-7.162 v -47.446 c 0,-1.021 0.217,-1.992 0.603,-2.871 C -51.876,-36.416 -27.618,-11.658 0,0"
         style="fill:#ffffff;fill-opacity:1;fill-rule:nonzero;stroke:none"
         transform="matrix(1.3333333,0,0,-1.3333333,551.73693,517.0156)"
         clip-path="url(#clipPath323)"
         id="path324" />
    </g>
  </g>
</svg>
