<?xml version="1.0" encoding="UTF-8" standalone="no"?>
<!-- Created with Inkscape (http://www.inkscape.org/) -->

<svg
   version="1.1"
   id="svg1"
   width="145.74667"
   height="135.54375"
   viewBox="0 0 145.74667 135.54375"
   xmlns="http://www.w3.org/2000/svg"
   xmlns:svg="http://www.w3.org/2000/svg">
  <defs
     id="defs1">
    <clipPath
       clipPathUnits="userSpaceOnUse"
       id="clipPath91">
      <path
         d="M 0,500 H 500 V 0 H 0 Z"
         transform="translate(-105.2095,-274.74461)"
         id="path91" />
    </clipPath>
    <clipPath
       clipPathUnits="userSpaceOnUse"
       id="clipPath93">
      <path
         d="M 0,500 H 500 V 0 H 0 Z"
         transform="translate(-112.95171,-275.83841)"
         id="path93" />
    </clipPath>
    <clipPath
       clipPathUnits="userSpaceOnUse"
       id="clipPath95">
      <path
         d="M 0,500 H 500 V 0 H 0 Z"
         id="path95" />
    </clipPath>
    <clipPath
       clipPathUnits="userSpaceOnUse"
       id="clipPath97">
      <path
         d="M 0,500 H 500 V 0 H 0 Z"
         transform="translate(-143.1948,-233.20701)"
         id="path97" />
    </clipPath>
    <clipPath
       clipPathUnits="userSpaceOnUse"
       id="clipPath99">
      <path
         d="M 0,500 H 500 V 0 H 0 Z"
         transform="translate(-118.32621,-217.9023)"
         id="path99" />
    </clipPath>
    <clipPath
       clipPathUnits="userSpaceOnUse"
       id="clipPath101">
      <path
         d="M 0,500 H 500 V 0 H 0 Z"
         id="path101" />
    </clipPath>
    <clipPath
       clipPathUnits="userSpaceOnUse"
       id="clipPath103">
      <path
         d="M 0,500 H 500 V 0 H 0 Z"
         transform="translate(-110.5146,-293.7759)"
         id="path103" />
    </clipPath>
    <clipPath
       clipPathUnits="userSpaceOnUse"
       id="clipPath105">
      <path
         d="M 0,500 H 500 V 0 H 0 Z"
         transform="translate(-121.8579,-268.73291)"
         id="path105" />
    </clipPath>
    <clipPath
       clipPathUnits="userSpaceOnUse"
       id="clipPath107">
      <path
         d="M 0,500 H 500 V 0 H 0 Z"
         transform="translate(-114.38871,-275.18211)"
         id="path107" />
    </clipPath>
    <clipPath
       clipPathUnits="userSpaceOnUse"
       id="clipPath109">
      <path
         d="M 0,500 H 500 V 0 H 0 Z"
         transform="translate(-135.7695,-313.27691)"
         id="path109" />
    </clipPath>
    <clipPath
       clipPathUnits="userSpaceOnUse"
       id="clipPath111">
      <path
         d="M 0,500 H 500 V 0 H 0 Z"
         transform="translate(-130.8511,-304.80521)"
         id="path111" />
    </clipPath>
    <clipPath
       clipPathUnits="userSpaceOnUse"
       id="clipPath113">
      <path
         d="M 0,500 H 500 V 0 H 0 Z"
         transform="translate(-90.132805,-299.75051)"
         id="path113" />
    </clipPath>
    <clipPath
       clipPathUnits="userSpaceOnUse"
       id="clipPath115">
      <path
         d="M 0,500 H 500 V 0 H 0 Z"
         transform="translate(-105.57321,-228.42191)"
         id="path115" />
    </clipPath>
    <clipPath
       clipPathUnits="userSpaceOnUse"
       id="clipPath117">
      <path
         d="M 0,500 H 500 V 0 H 0 Z"
         transform="translate(-94.1416,-218.9961)"
         id="path117" />
    </clipPath>
    <clipPath
       clipPathUnits="userSpaceOnUse"
       id="clipPath119">
      <path
         d="M 0,500 H 500 V 0 H 0 Z"
         transform="translate(-145.9272,-234.43551)"
         id="path119" />
    </clipPath>
    <clipPath
       clipPathUnits="userSpaceOnUse"
       id="clipPath120">
      <path
         d="M 55.8594,293.776 H 140.826 V 250.67 H 55.8594 Z"
         transform="translate(-110.5146,-293.7759)"
         id="path120" />
    </clipPath>
    <clipPath
       clipPathUnits="userSpaceOnUse"
       id="clipPath122">
      <path
         d="M 0,500 H 500 V 0 H 0 Z"
         transform="matrix(1.3333333,0,0,-1.3333333,0,666.66667)"
         id="path122" />
    </clipPath>
  </defs>
  <g
     id="layer-MC1"
     transform="translate(-74.479471,-244.0468)">
    <path
       id="path90"
       d="m 0,0 h -2.187 v 23.502 h -17.125 v 2.186 H 0 Z"
       style="fill:#e6e7e8;fill-opacity:1;fill-rule:nonzero;stroke:none"
       transform="matrix(1.3333333,0,0,-1.3333333,140.27933,300.34053)"
       clip-path="url(#clipPath91)" />
    <path
       id="path92"
       d="M 0,0 H -2.187 V 38.531 H 19.129 V 36.346 H 0 Z"
       style="fill:#e6e7e8;fill-opacity:1;fill-rule:nonzero;stroke:none"
       transform="matrix(1.3333333,0,0,-1.3333333,150.60227,298.88213)"
       clip-path="url(#clipPath93)" />
    <path
       id="path94"
       d="m 128.255,277.478 h -2.187 v 27.874 h 2.187 z"
       style="fill:#e6e7e8;fill-opacity:1;fill-rule:nonzero;stroke:none"
       transform="matrix(1.3333333,0,0,-1.3333333,0,666.66667)"
       clip-path="url(#clipPath95)" />
    <path
       id="path96"
       d="m 0,0 h -19.312 v 20.768 h 2.186 V 2.186 H 0 Z"
       style="fill:#e6e7e8;fill-opacity:1;fill-rule:nonzero;stroke:none"
       transform="matrix(1.3333333,0,0,-1.3333333,190.9264,355.724)"
       clip-path="url(#clipPath97)" />
    <path
       id="path98"
       d="M 0,0 H -27.829 V 2.188 H -2.186 V 34.981 H 0 Z"
       style="fill:#e6e7e8;fill-opacity:1;fill-rule:nonzero;stroke:none"
       transform="matrix(1.3333333,0,0,-1.3333333,157.76827,376.13027)"
       clip-path="url(#clipPath99)" />
    <path
       id="path100"
       d="m 103.022,228.287 h -2.186 v 22.956 h 2.186 z"
       style="fill:#e6e7e8;fill-opacity:1;fill-rule:nonzero;stroke:none"
       transform="matrix(1.3333333,0,0,-1.3333333,0,666.66667)"
       clip-path="url(#clipPath101)" />
    <path
       id="path102"
       d="m 0,0 c -30.185,0 -54.655,-26.234 -54.655,-26.234 0,0 24.47,-26.237 54.655,-26.237 30.186,0 54.655,26.237 54.655,26.237 C 54.655,-26.234 30.186,0 0,0"
       style="fill:#27aae1;fill-opacity:1;fill-rule:nonzero;stroke:none"
       transform="matrix(1.3333333,0,0,-1.3333333,147.3528,274.96547)"
       clip-path="url(#clipPath103)" />
    <path
       id="path104"
       d="m 0,0 c 0,-6.339 -5.139,-11.479 -11.478,-11.479 -6.338,0 -11.478,5.14 -11.478,11.479 0,6.339 5.14,11.478 11.478,11.478 C -5.139,11.478 0,6.339 0,0"
       style="fill:#ffffff;fill-opacity:1;fill-rule:nonzero;stroke:none"
       transform="matrix(1.3333333,0,0,-1.3333333,162.4772,308.35613)"
       clip-path="url(#clipPath105)" />
    <path
       id="path106"
       d="m 0,0 c 4.218,-2.141 5.904,-7.295 3.762,-11.512 -2.139,-4.22 -7.294,-5.904 -11.513,-3.766 M 7.107,5.769 C 6.154,6.547 5.113,7.244 3.97,7.825 2.826,8.402 1.647,8.834 0.455,9.143 l -1.246,6.14 -8.633,-0.467 -0.573,-6.253 c -2.326,-0.876 -4.472,-2.238 -6.257,-4.056 l -5.928,1.989 -3.913,-7.712 5.109,-3.609 c -0.411,-2.515 -0.243,-5.048 0.42,-7.448 l -4.705,-4.157 4.723,-7.242 5.691,2.625 c 0.952,-0.781 1.995,-1.478 3.138,-2.055 1.142,-0.582 2.322,-1.013 3.514,-1.32 l 1.243,-6.141 8.636,0.467 0.571,6.254 c 2.327,0.881 4.474,2.238 6.255,4.059 l 5.934,-1.992 3.913,7.711 -5.112,3.615 c 0.414,2.512 0.243,5.045 -0.419,7.445 l 4.705,4.154 -4.725,7.246 z"
       style="fill:#4d4753;fill-opacity:1;fill-rule:nonzero;stroke:none"
       transform="matrix(1.3333333,0,0,-1.3333333,152.51827,299.7572)"
       clip-path="url(#clipPath107)" />
    <path
       id="path108"
       d="m 0,0 c 0,-2.037 -1.651,-3.688 -3.689,-3.688 -2.037,0 -3.689,1.651 -3.689,3.688 0,2.038 1.652,3.688 3.689,3.688 C -1.651,3.688 0,2.038 0,0"
       style="fill:#e6e7e8;fill-opacity:1;fill-rule:nonzero;stroke:none"
       transform="matrix(1.3333333,0,0,-1.3333333,181.026,248.96413)"
       clip-path="url(#clipPath109)" />
    <path
       id="path110"
       d="m 0,0 c 0,-2.037 -1.651,-3.689 -3.689,-3.689 -2.037,0 -3.689,1.652 -3.689,3.689 0,2.037 1.652,3.689 3.689,3.689 C -1.651,3.689 0,2.037 0,0"
       style="fill:#e6e7e8;fill-opacity:1;fill-rule:nonzero;stroke:none"
       transform="matrix(1.3333333,0,0,-1.3333333,174.46813,260.25973)"
       clip-path="url(#clipPath111)" />
    <path
       id="path112"
       d="m 0,0 c 0,-2.038 -1.651,-3.689 -3.689,-3.689 -2.036,0 -3.689,1.651 -3.689,3.689 0,2.037 1.653,3.689 3.689,3.689 C -1.651,3.689 0,2.037 0,0"
       style="fill:#e6e7e8;fill-opacity:1;fill-rule:nonzero;stroke:none"
       transform="matrix(1.3333333,0,0,-1.3333333,120.17707,266.99933)"
       clip-path="url(#clipPath113)" />
    <path
       id="path114"
       d="m 0,0 c 0,-2.035 -1.651,-3.688 -3.689,-3.688 -2.038,0 -3.689,1.653 -3.689,3.688 0,2.039 1.651,3.691 3.689,3.691 C -1.651,3.691 0,2.039 0,0"
       style="fill:#e6e7e8;fill-opacity:1;fill-rule:nonzero;stroke:none"
       transform="matrix(1.3333333,0,0,-1.3333333,140.76427,362.10413)"
       clip-path="url(#clipPath115)" />
    <path
       id="path116"
       d="m 0,0 c 0,-2.037 -1.652,-3.689 -3.689,-3.689 -2.039,0 -3.689,1.652 -3.689,3.689 0,2.037 1.65,3.689 3.689,3.689 C -1.652,3.689 0,2.037 0,0"
       style="fill:#e6e7e8;fill-opacity:1;fill-rule:nonzero;stroke:none"
       transform="matrix(1.3333333,0,0,-1.3333333,125.52213,374.67187)"
       clip-path="url(#clipPath117)" />
    <path
       id="path118"
       d="m 0,0 c 0,-2.037 -1.653,-3.689 -3.689,-3.689 -2.038,0 -3.69,1.652 -3.69,3.689 0,2.037 1.652,3.689 3.69,3.689 C -1.653,3.689 0,2.037 0,0"
       style="fill:#e6e7e8;fill-opacity:1;fill-rule:nonzero;stroke:none"
       transform="matrix(1.3333333,0,0,-1.3333333,194.5696,354.086)"
       clip-path="url(#clipPath119)" />
    <g
       opacity="0.199997"
       id="g121"
       clip-path="url(#clipPath122)">
      <path
         d="m 0,0 c -30.185,0 -54.655,-26.234 -54.655,-26.234 0,0 8.713,-9.336 22.149,-16.871 18.154,13.622 39.951,27.111 62.817,34.931 C 21.637,-3.623 11.213,0 0,0"
         style="fill:#ffffff;fill-opacity:1;fill-rule:nonzero;stroke:none"
         transform="matrix(1.3333333,0,0,-1.3333333,147.3528,274.96547)"
         clip-path="url(#clipPath120)"
         id="path121" />
    </g>
  </g>
</svg>
