<?xml version="1.0" encoding="UTF-8" standalone="no"?>
<!-- Created with Inkscape (http://www.inkscape.org/) -->

<svg
   version="1.1"
   id="svg1"
   width="127.75387"
   height="94.458405"
   viewBox="0 0 127.75387 94.458405"
   xmlns="http://www.w3.org/2000/svg"
   xmlns:svg="http://www.w3.org/2000/svg">
  <defs
     id="defs1">
    <clipPath
       clipPathUnits="userSpaceOnUse"
       id="clipPath8">
      <path
         d="M 0,500 H 500 V 0 H 0 Z"
         transform="translate(-103.02051,-368.25241)"
         id="path8" />
    </clipPath>
    <clipPath
       clipPathUnits="userSpaceOnUse"
       id="clipPath10">
      <path
         d="M 0,500 H 500 V 0 H 0 Z"
         transform="translate(-115.90581,-335.54151)"
         id="path10" />
    </clipPath>
    <clipPath
       clipPathUnits="userSpaceOnUse"
       id="clipPath12">
      <path
         d="M 0,500 H 500 V 0 H 0 Z"
         transform="translate(-157.5229,-335.09421)"
         id="path12" />
    </clipPath>
    <clipPath
       clipPathUnits="userSpaceOnUse"
       id="clipPath14">
      <path
         d="M 0,500 H 500 V 0 H 0 Z"
         transform="translate(-160.3896,-356.68601)"
         id="path14" />
    </clipPath>
    <clipPath
       clipPathUnits="userSpaceOnUse"
       id="clipPath16">
      <path
         d="M 0,500 H 500 V 0 H 0 Z"
         transform="translate(-115.90581,-335.54151)"
         id="path16" />
    </clipPath>
    <clipPath
       clipPathUnits="userSpaceOnUse"
       id="clipPath18">
      <path
         d="M 0,500 H 500 V 0 H 0 Z"
         transform="translate(-71.510302,-341.81201)"
         id="path18" />
    </clipPath>
    <clipPath
       clipPathUnits="userSpaceOnUse"
       id="clipPath20">
      <path
         d="M 0,500 H 500 V 0 H 0 Z"
         transform="translate(-157.52391,-335.09421)"
         id="path20" />
    </clipPath>
    <clipPath
       clipPathUnits="userSpaceOnUse"
       id="clipPath22">
      <path
         d="M 0,500 H 500 V 0 H 0 Z"
         transform="translate(-131.00241,-326.49071)"
         id="path22" />
    </clipPath>
    <clipPath
       clipPathUnits="userSpaceOnUse"
       id="clipPath24">
      <path
         d="M 0,500 H 500 V 0 H 0 Z"
         transform="translate(-71.510302,-341.81201)"
         id="path24" />
    </clipPath>
    <clipPath
       clipPathUnits="userSpaceOnUse"
       id="clipPath26">
      <path
         d="M 0,500 H 500 V 0 H 0 Z"
         transform="translate(-98.228005,-333.26901)"
         id="path26" />
    </clipPath>
    <clipPath
       clipPathUnits="userSpaceOnUse"
       id="clipPath28">
      <path
         d="M 0,500 H 500 V 0 H 0 Z"
         transform="translate(-152.4712,-380.56881)"
         id="path28" />
    </clipPath>
    <clipPath
       clipPathUnits="userSpaceOnUse"
       id="clipPath30">
      <path
         d="M 0,500 H 500 V 0 H 0 Z"
         transform="translate(-162.59811,-357.19971)"
         id="path30" />
    </clipPath>
    <clipPath
       clipPathUnits="userSpaceOnUse"
       id="clipPath32">
      <path
         d="M 0,500 H 500 V 0 H 0 Z"
         transform="translate(-159.35211,-336.03761)"
         id="path32" />
    </clipPath>
    <clipPath
       clipPathUnits="userSpaceOnUse"
       id="clipPath34">
      <path
         d="M 0,500 H 500 V 0 H 0 Z"
         transform="translate(-133.3857,-329.15671)"
         id="path34" />
    </clipPath>
    <clipPath
       clipPathUnits="userSpaceOnUse"
       id="clipPath36">
      <path
         d="M 0,500 H 500 V 0 H 0 Z"
         transform="translate(-117.936,-336.42721)"
         id="path36" />
    </clipPath>
    <clipPath
       clipPathUnits="userSpaceOnUse"
       id="clipPath38">
      <path
         d="M 0,500 H 500 V 0 H 0 Z"
         transform="translate(-100.5615,-334.78171)"
         id="path38" />
    </clipPath>
    <clipPath
       clipPathUnits="userSpaceOnUse"
       id="clipPath40">
      <path
         d="M 0,500 H 500 V 0 H 0 Z"
         transform="translate(-75.568404,-343.56691)"
         id="path40" />
    </clipPath>
    <clipPath
       clipPathUnits="userSpaceOnUse"
       id="clipPath42">
      <path
         d="M 0,500 H 500 V 0 H 0 Z"
         transform="translate(-72.365702,-367.62941)"
         id="path42" />
    </clipPath>
    <clipPath
       clipPathUnits="userSpaceOnUse"
       id="clipPath44">
      <path
         d="M 0,500 H 500 V 0 H 0 Z"
         transform="translate(-88.724102,-387.83941)"
         id="path44" />
    </clipPath>
    <clipPath
       clipPathUnits="userSpaceOnUse"
       id="clipPath46">
      <path
         d="M 0,500 H 500 V 0 H 0 Z"
         transform="translate(-121.83111,-394.41751)"
         id="path46" />
    </clipPath>
    <clipPath
       clipPathUnits="userSpaceOnUse"
       id="clipPath48">
      <path
         d="M 0,500 H 500 V 0 H 0 Z"
         transform="translate(-105.2124,-368.45171)"
         id="path48" />
    </clipPath>
    <clipPath
       clipPathUnits="userSpaceOnUse"
       id="clipPath50">
      <path
         d="M 0,500 H 500 V 0 H 0 Z"
         transform="translate(-132.564,-358.58451)"
         id="path50" />
    </clipPath>
    <clipPath
       clipPathUnits="userSpaceOnUse"
       id="clipPath52">
      <path
         d="M 0,500 H 500 V 0 H 0 Z"
         transform="translate(-141.5659,-371.91261)"
         id="path52" />
    </clipPath>
    <clipPath
       clipPathUnits="userSpaceOnUse"
       id="clipPath54">
      <path
         d="M 0,500 H 500 V 0 H 0 Z"
         transform="translate(-124.4272,-376.41461)"
         id="path54" />
    </clipPath>
    <clipPath
       clipPathUnits="userSpaceOnUse"
       id="clipPath56">
      <path
         d="M 0,500 H 500 V 0 H 0 Z"
         transform="translate(-84.787105,-366.20171)"
         id="path56" />
    </clipPath>
    <clipPath
       clipPathUnits="userSpaceOnUse"
       id="clipPath58">
      <path
         d="M 0,500 H 500 V 0 H 0 Z"
         transform="translate(-102.9634,-346.46631)"
         id="path58" />
    </clipPath>
    <clipPath
       clipPathUnits="userSpaceOnUse"
       id="clipPath59">
      <path
         d="M 66.7832,397.209 H 139.824 V 340.776 H 66.7832 Z"
         transform="translate(-121.7544,-392.31881)"
         id="path59" />
    </clipPath>
    <clipPath
       clipPathUnits="userSpaceOnUse"
       id="clipPath61">
      <path
         d="M 0,500 H 500 V 0 H 0 Z"
         transform="matrix(1.3333333,0,0,-1.3333333,0,666.66667)"
         id="path61" />
    </clipPath>
  </defs>
  <g
     id="layer-MC1"
     transform="translate(-89.043601,-137.054)">
    <path
       id="path2"
       d="m 0,0 -29.918,13.676 -32.372,-5.598 -16.387,-20.369 2.769,-24.668 25.621,-8.309 17.267,2.25 14.064,-7.356 26.14,6.925 2.769,20.859 z"
       style="fill:#4d4753;fill-opacity:1;fill-rule:nonzero;stroke:none"
       transform="matrix(1.3333333,0,0,-1.3333333,198.5052,160.10613)" />
    <path
       id="path3"
       d="m 0,0 -15.792,-25.979 18.825,7.725 z"
       style="fill:#27aae1;fill-opacity:1;fill-rule:nonzero;stroke:none"
       transform="matrix(1.3333333,0,0,-1.3333333,158.138,140.442)" />
    <path
       id="path4"
       d="M 0,0 -8.525,-13.199 17.7,-34.708 Z"
       style="fill:#27aae1;fill-opacity:1;fill-rule:nonzero;stroke:none"
       transform="matrix(1.3333333,0,0,-1.3333333,185.40693,171.87827)" />
    <path
       id="path5"
       d="m 0,0 -2.943,-19.95 14.931,-9.78 0.519,0.258 -11.901,30.12"
       style="fill:#27aae1;fill-opacity:1;fill-rule:nonzero;stroke:none"
       transform="matrix(1.3333333,0,0,-1.3333333,137.11,177.59053)" />
    <path
       id="path6"
       d="M 0,0 -10.387,-21.422 -8.894,-21.68 18.761,0.975 17.787,2.338"
       style="fill:#27aae1;fill-opacity:1;fill-rule:nonzero;stroke:none"
       transform="matrix(1.3333333,0,0,-1.3333333,110.42253,178.5436)" />
    <path
       id="path7"
       d="m 0,0 c -0.148,0 -0.292,0.063 -0.393,0.18 l -17.414,20.179 c -0.187,0.217 -0.163,0.545 0.054,0.733 0.216,0.188 0.546,0.164 0.732,-0.054 L 0.151,1.139 18.328,8.426 15.583,26.416 c -0.043,0.283 0.151,0.548 0.435,0.591 0.283,0.042 0.549,-0.152 0.591,-0.435 L 19.417,8.174 C 19.454,7.937 19.321,7.704 19.096,7.615 L 0.193,0.038 C 0.13,0.012 0.065,0 0,0"
       style="fill:#f1f2f2;fill-opacity:1;fill-rule:nonzero;stroke:none"
       transform="matrix(1.3333333,0,0,-1.3333333,137.36067,175.66347)"
       clip-path="url(#clipPath8)" />
    <path
       id="path9"
       d="m 0,0 c -0.099,0 -0.198,0.027 -0.286,0.085 -0.24,0.157 -0.305,0.479 -0.147,0.72 L 13.597,22.09 -12.79,32.633 -44.061,6.393 c -0.221,-0.186 -0.548,-0.157 -0.732,0.064 -0.185,0.219 -0.155,0.547 0.064,0.73 l 31.51,26.441 c 0.147,0.124 0.349,0.157 0.527,0.085 L 14.573,22.818 c 0.145,-0.058 0.256,-0.179 0.302,-0.328 0.047,-0.148 0.025,-0.31 -0.061,-0.441 L 0.434,0.232 C 0.333,0.082 0.168,0 0,0"
       style="fill:#f1f2f2;fill-opacity:1;fill-rule:nonzero;stroke:none"
       transform="matrix(1.3333333,0,0,-1.3333333,154.54107,219.278)"
       clip-path="url(#clipPath10)" />
    <path
       id="path11"
       d="M 0,0 C -0.115,0 -0.231,0.037 -0.328,0.116 L -27.565,22.38 c -0.21,0.172 -0.253,0.475 -0.1,0.697 l 8.217,11.941 -16.323,5.748 c -0.271,0.094 -0.413,0.391 -0.318,0.661 0.095,0.27 0.394,0.412 0.663,0.317 l 16.963,-5.973 c 0.152,-0.054 0.271,-0.175 0.321,-0.329 0.05,-0.154 0.026,-0.321 -0.066,-0.456 L -26.538,22.882 0.329,0.92 C 0.551,0.738 0.585,0.412 0.403,0.189 0.299,0.063 0.15,0 0,0"
       style="fill:#f1f2f2;fill-opacity:1;fill-rule:nonzero;stroke:none"
       transform="matrix(1.3333333,0,0,-1.3333333,210.03053,219.8744)"
       clip-path="url(#clipPath12)" />
    <path
       id="path13"
       d="m 0,0 c -0.092,0 -0.186,0.024 -0.271,0.076 l -21.503,13.17 c -0.139,0.086 -0.23,0.232 -0.245,0.395 -0.016,0.162 0.046,0.323 0.167,0.432 l 11.201,10.214 c 0.212,0.193 0.54,0.179 0.732,-0.033 0.194,-0.213 0.179,-0.541 -0.033,-0.734 L -20.642,13.772 0.272,0.962 C 0.516,0.812 0.593,0.491 0.443,0.247 0.346,0.088 0.176,0 0,0"
       style="fill:#f1f2f2;fill-opacity:1;fill-rule:nonzero;stroke:none"
       transform="matrix(1.3333333,0,0,-1.3333333,213.8528,191.08533)"
       clip-path="url(#clipPath14)" />
    <path
       id="path15"
       d="M 0,0 C -0.207,0 -0.403,0.125 -0.483,0.328 L -13.22,32.662 -33.217,30.019 c -0.044,-0.006 -0.09,-0.005 -0.135,-10e-4 l -13.976,1.793 c -0.284,0.037 -0.485,0.295 -0.449,0.58 0.038,0.284 0.297,0.476 0.581,0.45 l 13.91,-1.784 20.333,2.689 c 0.233,0.031 0.464,-0.102 0.551,-0.326 L 0.483,0.709 C 0.588,0.441 0.457,0.141 0.19,0.035 0.127,0.011 0.063,0 0,0"
       style="fill:#f1f2f2;fill-opacity:1;fill-rule:nonzero;stroke:none"
       transform="matrix(1.3333333,0,0,-1.3333333,154.54107,219.278)"
       clip-path="url(#clipPath16)" />
    <path
       id="path17"
       d="m 0,0 c -0.077,0 -0.155,0.018 -0.229,0.054 -0.257,0.127 -0.363,0.439 -0.236,0.695 l 11.25,22.768 2.796,23.683 c 0.034,0.285 0.289,0.49 0.577,0.455 0.285,-0.033 0.488,-0.291 0.454,-0.576 L 11.805,23.306 c -0.006,-0.059 -0.024,-0.116 -0.05,-0.17 L 0.466,0.29 C 0.376,0.106 0.191,0 0,0"
       style="fill:#f1f2f2;fill-opacity:1;fill-rule:nonzero;stroke:none"
       transform="matrix(1.3333333,0,0,-1.3333333,95.347067,210.91733)"
       clip-path="url(#clipPath18)" />
    <path
       id="path19"
       d="M 0,0 C -0.186,0 -0.365,0.098 -0.458,0.273 L -19.093,35.036 -38.351,58.758 -54.062,33.404 c -0.15,-0.243 -0.47,-0.32 -0.715,-0.168 -0.244,0.151 -0.318,0.471 -0.167,0.715 l 16.096,25.975 c 0.088,0.142 0.24,0.234 0.408,0.244 0.171,0.006 0.331,-0.061 0.436,-0.191 L -18.233,35.609 0.457,0.764 C 0.593,0.511 0.498,0.196 0.245,0.061 0.167,0.02 0.083,0 0,0"
       style="fill:#f1f2f2;fill-opacity:1;fill-rule:nonzero;stroke:none"
       transform="matrix(1.3333333,0,0,-1.3333333,210.03187,219.8744)"
       clip-path="url(#clipPath20)" />
    <path
       id="path21"
       d="m 0,0 c -0.28,0 -0.512,0.226 -0.519,0.508 l -0.714,30.76 -8.319,18.377 c -0.117,0.259 -0.001,0.568 0.26,0.687 0.26,0.119 0.569,0.002 0.687,-0.26 l 8.361,-18.471 c 0.03,-0.064 0.045,-0.134 0.047,-0.203 L 0.519,0.532 C 0.527,0.245 0.299,0.008 0.012,0 Z"
       style="fill:#f1f2f2;fill-opacity:1;fill-rule:nonzero;stroke:none"
       transform="matrix(1.3333333,0,0,-1.3333333,174.66987,231.34573)"
       clip-path="url(#clipPath22)" />
    <path
       id="path23"
       d="m 0,0 c -0.248,0 -0.468,0.179 -0.511,0.431 -0.05,0.283 0.14,0.551 0.422,0.601 l 27.943,4.864 3.143,21.141 c 0.042,0.282 0.306,0.476 0.59,0.437 0.284,-0.042 0.479,-0.307 0.437,-0.59 L 28.827,5.372 C 28.793,5.15 28.623,4.975 28.402,4.937 L 0.09,0.008 C 0.06,0.003 0.03,0 0,0"
       style="fill:#f1f2f2;fill-opacity:1;fill-rule:nonzero;stroke:none"
       transform="matrix(1.3333333,0,0,-1.3333333,95.347067,210.91733)"
       clip-path="url(#clipPath24)" />
    <path
       id="path25"
       d="M 0,0 C -0.021,0 -0.042,0.001 -0.062,0.003 -0.348,0.038 -0.55,0.296 -0.517,0.58 L 1.08,14.052 c 0.021,0.181 0.135,0.338 0.302,0.412 0.167,0.074 0.361,0.057 0.51,-0.047 L 17.975,3.217 C 18.21,3.054 18.268,2.729 18.104,2.494 17.939,2.259 17.616,2.202 17.381,2.365 L 2.008,13.069 0.515,0.458 C 0.483,0.194 0.259,0 0,0"
       style="fill:#f1f2f2;fill-opacity:1;fill-rule:nonzero;stroke:none"
       transform="matrix(1.3333333,0,0,-1.3333333,130.97067,222.308)"
       clip-path="url(#clipPath26)" />
    <path
       id="path27"
       d="m 0,0 c 0,-1.541 -1.249,-2.791 -2.792,-2.791 -1.541,0 -2.791,1.25 -2.791,2.791 0,1.542 1.25,2.792 2.791,2.792 C -1.249,2.792 0,1.542 0,0"
       style="fill:#f1f2f2;fill-opacity:1;fill-rule:nonzero;stroke:none"
       transform="matrix(1.3333333,0,0,-1.3333333,203.29493,159.2416)"
       clip-path="url(#clipPath28)" />
    <path
       id="path29"
       d="m 0,0 c 0,-1.541 -1.25,-2.791 -2.792,-2.791 -1.541,0 -2.791,1.25 -2.791,2.791 0,1.542 1.25,2.791 2.791,2.791 C -1.25,2.791 0,1.542 0,0"
       style="fill:#f1f2f2;fill-opacity:1;fill-rule:nonzero;stroke:none"
       transform="matrix(1.3333333,0,0,-1.3333333,216.79747,190.4004)"
       clip-path="url(#clipPath30)" />
    <path
       id="path31"
       d="m 0,0 c 0,-1.542 -1.25,-2.792 -2.791,-2.792 -1.542,0 -2.792,1.25 -2.792,2.792 0,1.541 1.25,2.791 2.792,2.791 C -1.25,2.791 0,1.541 0,0"
       style="fill:#f1f2f2;fill-opacity:1;fill-rule:nonzero;stroke:none"
       transform="matrix(1.3333333,0,0,-1.3333333,212.46947,218.61653)"
       clip-path="url(#clipPath32)" />
    <path
       id="path33"
       d="m 0,0 c 0,-1.543 -1.25,-2.791 -2.791,-2.791 -1.542,0 -2.792,1.248 -2.792,2.791 0,1.542 1.25,2.791 2.792,2.791 C -1.25,2.791 0,1.542 0,0"
       style="fill:#f1f2f2;fill-opacity:1;fill-rule:nonzero;stroke:none"
       transform="matrix(1.3333333,0,0,-1.3333333,177.8476,227.79107)"
       clip-path="url(#clipPath34)" />
    <path
       id="path35"
       d="m 0,0 c 0,-1.542 -1.25,-2.792 -2.792,-2.792 -1.541,0 -2.791,1.25 -2.791,2.792 0,1.541 1.25,2.791 2.791,2.791 C -1.25,2.791 0,1.541 0,0"
       style="fill:#f1f2f2;fill-opacity:1;fill-rule:nonzero;stroke:none"
       transform="matrix(1.3333333,0,0,-1.3333333,157.248,218.09707)"
       clip-path="url(#clipPath36)" />
    <path
       id="path37"
       d="m 0,0 c 0,-1.541 -1.25,-2.791 -2.792,-2.791 -1.541,0 -2.791,1.25 -2.791,2.791 0,1.543 1.25,2.792 2.791,2.792 C -1.25,2.792 0,1.543 0,0"
       style="fill:#f1f2f2;fill-opacity:1;fill-rule:nonzero;stroke:none"
       transform="matrix(1.3333333,0,0,-1.3333333,134.082,220.29107)"
       clip-path="url(#clipPath38)" />
    <path
       id="path39"
       d="m 0,0 c 0,-1.541 -1.25,-2.791 -2.792,-2.791 -1.541,0 -2.791,1.25 -2.791,2.791 0,1.543 1.25,2.793 2.791,2.793 C -1.25,2.793 0,1.543 0,0"
       style="fill:#f1f2f2;fill-opacity:1;fill-rule:nonzero;stroke:none"
       transform="matrix(1.3333333,0,0,-1.3333333,100.75787,208.57747)"
       clip-path="url(#clipPath40)" />
    <path
       id="path41"
       d="m 0,0 c 0,-1.541 -1.25,-2.791 -2.792,-2.791 -1.541,0 -2.791,1.25 -2.791,2.791 0,1.541 1.25,2.791 2.791,2.791 C -1.25,2.791 0,1.541 0,0"
       style="fill:#f1f2f2;fill-opacity:1;fill-rule:nonzero;stroke:none"
       transform="matrix(1.3333333,0,0,-1.3333333,96.4876,176.49413)"
       clip-path="url(#clipPath42)" />
    <path
       id="path43"
       d="m 0,0 c 0,-1.542 -1.25,-2.791 -2.791,-2.791 -1.542,0 -2.792,1.249 -2.792,2.791 0,1.542 1.25,2.792 2.792,2.792 C -1.25,2.792 0,1.542 0,0"
       style="fill:#f1f2f2;fill-opacity:1;fill-rule:nonzero;stroke:none"
       transform="matrix(1.3333333,0,0,-1.3333333,118.2988,149.54747)"
       clip-path="url(#clipPath44)" />
    <path
       id="path45"
       d="m 0,0 c 0,-1.542 -1.25,-2.79 -2.792,-2.79 -1.541,0 -2.791,1.248 -2.791,2.79 0,1.542 1.25,2.792 2.791,2.792 C -1.25,2.792 0,1.542 0,0"
       style="fill:#f1f2f2;fill-opacity:1;fill-rule:nonzero;stroke:none"
       transform="matrix(1.3333333,0,0,-1.3333333,162.44147,140.77667)"
       clip-path="url(#clipPath46)" />
    <path
       id="path47"
       d="m 0,0 c 0,-1.541 -1.249,-2.791 -2.791,-2.791 -1.542,0 -2.791,1.25 -2.791,2.791 0,1.542 1.249,2.791 2.791,2.791 C -1.249,2.791 0,1.542 0,0"
       style="fill:#f1f2f2;fill-opacity:1;fill-rule:nonzero;stroke:none"
       transform="matrix(1.3333333,0,0,-1.3333333,140.2832,175.39773)"
       clip-path="url(#clipPath48)" />
    <path
       id="path49"
       d="m 0,0 c 0,-1.541 -1.25,-2.791 -2.792,-2.791 -1.541,0 -2.791,1.25 -2.791,2.791 0,1.541 1.25,2.791 2.791,2.791 C -1.25,2.791 0,1.541 0,0"
       style="fill:#f1f2f2;fill-opacity:1;fill-rule:nonzero;stroke:none"
       transform="matrix(1.3333333,0,0,-1.3333333,176.752,188.554)"
       clip-path="url(#clipPath50)" />
    <path
       id="path51"
       d="m 0,0 c 0,-1.541 -1.25,-2.791 -2.792,-2.791 -1.542,0 -2.791,1.25 -2.791,2.791 0,1.543 1.249,2.793 2.791,2.793 C -1.25,2.793 0,1.543 0,0"
       style="fill:#f1f2f2;fill-opacity:1;fill-rule:nonzero;stroke:none"
       transform="matrix(1.3333333,0,0,-1.3333333,188.75453,170.7832)"
       clip-path="url(#clipPath52)" />
    <path
       id="path53"
       d="m 0,0 c 0,-1.543 -1.249,-2.791 -2.791,-2.791 -1.542,0 -2.792,1.248 -2.792,2.791 0,1.542 1.25,2.791 2.792,2.791 C -1.249,2.791 0,1.542 0,0"
       style="fill:#f1f2f2;fill-opacity:1;fill-rule:nonzero;stroke:none"
       transform="matrix(1.3333333,0,0,-1.3333333,165.90293,164.78053)"
       clip-path="url(#clipPath54)" />
    <path
       id="path55"
       d="m 0,0 c 0,-1.543 -1.25,-2.793 -2.792,-2.793 -1.541,0 -2.791,1.25 -2.791,2.793 0,1.541 1.25,2.791 2.791,2.791 C -1.25,2.791 0,1.541 0,0"
       style="fill:#f1f2f2;fill-opacity:1;fill-rule:nonzero;stroke:none"
       transform="matrix(1.3333333,0,0,-1.3333333,113.04947,178.39773)"
       clip-path="url(#clipPath56)" />
    <path
       id="path57"
       d="m 0,0 c 0,-1.542 -1.25,-2.791 -2.792,-2.791 -1.541,0 -2.791,1.249 -2.791,2.791 0,1.542 1.25,2.792 2.791,2.792 C -1.25,2.792 0,1.542 0,0"
       style="fill:#f1f2f2;fill-opacity:1;fill-rule:nonzero;stroke:none"
       transform="matrix(1.3333333,0,0,-1.3333333,137.28453,204.7116)"
       clip-path="url(#clipPath58)" />
    <g
       opacity="0.199997"
       id="g60"
       clip-path="url(#clipPath61)">
      <path
         d="m 0,0 -0.418,0.516 c 0.31,0.451 0.495,0.994 0.495,1.583 0,1.542 -1.25,2.792 -2.792,2.792 -1.541,0 -2.791,-1.25 -2.791,-2.792 0,-0.449 0.114,-0.864 0.301,-1.239 l -27.878,-4.821 c -0.243,1.293 -1.374,2.274 -2.738,2.274 -1.542,0 -2.792,-1.251 -2.792,-2.792 0,-1.028 0.562,-1.916 1.389,-2.4 l -12.859,-15.985 c -0.513,0.587 -1.257,0.966 -2.097,0.966 -1.541,0 -2.791,-1.25 -2.791,-2.791 0,-1.541 1.25,-2.791 2.791,-2.791 0.325,0 0.632,0.066 0.922,0.168 l 2.096,-18.667 c -1.454,-0.096 -2.608,-1.294 -2.608,-2.773 0,-1.541 1.25,-2.791 2.792,-2.791 1.056,0 1.963,0.594 2.438,1.458 l 0.705,-0.228 c 12.843,14.196 35.584,34.909 63.905,42.053 z"
         style="fill:#ffffff;fill-opacity:1;fill-rule:nonzero;stroke:none"
         transform="matrix(1.3333333,0,0,-1.3333333,162.3392,143.57493)"
         clip-path="url(#clipPath59)"
         id="path60" />
    </g>
  </g>
</svg>
