<?xml version="1.0" encoding="UTF-8" standalone="no"?>
<!-- Created with Inkscape (http://www.inkscape.org/) -->

<svg
   version="1.1"
   id="svg1"
   width="166.66797"
   height="109.7164"
   viewBox="0 0 166.66797 109.7164"
   xmlns="http://www.w3.org/2000/svg"
   xmlns:svg="http://www.w3.org/2000/svg">
  <defs
     id="defs1">
    <clipPath
       clipPathUnits="userSpaceOnUse"
       id="clipPath133">
      <path
         d="M 0,500 H 500 V 0 H 0 Z"
         transform="translate(-427.42381,-292.98291)"
         id="path133" />
    </clipPath>
    <clipPath
       clipPathUnits="userSpaceOnUse"
       id="clipPath135">
      <path
         d="M 0,500 H 500 V 0 H 0 Z"
         transform="translate(-428.95701,-301.15281)"
         id="path135" />
    </clipPath>
    <clipPath
       clipPathUnits="userSpaceOnUse"
       id="clipPath137">
      <path
         d="M 0,500 H 500 V 0 H 0 Z"
         transform="translate(-444.01861,-274.7319)"
         id="path137" />
    </clipPath>
    <clipPath
       clipPathUnits="userSpaceOnUse"
       id="clipPath139">
      <path
         d="M 0,500 H 500 V 0 H 0 Z"
         transform="translate(-445.80471,-275.05131)"
         id="path139" />
    </clipPath>
    <clipPath
       clipPathUnits="userSpaceOnUse"
       id="clipPath141">
      <path
         d="M 0,500 H 500 V 0 H 0 Z"
         id="path141" />
    </clipPath>
    <clipPath
       clipPathUnits="userSpaceOnUse"
       id="clipPath143">
      <path
         d="M 0,500 H 500 V 0 H 0 Z"
         transform="translate(-429.53221,-273.32861)"
         id="path143" />
    </clipPath>
    <clipPath
       clipPathUnits="userSpaceOnUse"
       id="clipPath145">
      <path
         d="M 0,500 H 500 V 0 H 0 Z"
         transform="translate(-339.18461,-232.39841)"
         id="path145" />
    </clipPath>
    <clipPath
       clipPathUnits="userSpaceOnUse"
       id="clipPath147">
      <path
         d="M 0,500 H 500 V 0 H 0 Z"
         transform="translate(-337.65231,-224.22851)"
         id="path147" />
    </clipPath>
    <clipPath
       clipPathUnits="userSpaceOnUse"
       id="clipPath149">
      <path
         d="M 0,500 H 500 V 0 H 0 Z"
         transform="translate(-322.59181,-250.6509)"
         id="path149" />
    </clipPath>
    <clipPath
       clipPathUnits="userSpaceOnUse"
       id="clipPath151">
      <path
         d="M 0,500 H 500 V 0 H 0 Z"
         transform="translate(-320.80371,-250.33061)"
         id="path151" />
    </clipPath>
    <clipPath
       clipPathUnits="userSpaceOnUse"
       id="clipPath153">
      <path
         d="M 0,500 H 500 V 0 H 0 Z"
         id="path153" />
    </clipPath>
    <clipPath
       clipPathUnits="userSpaceOnUse"
       id="clipPath155">
      <path
         d="M 0,500 H 500 V 0 H 0 Z"
         transform="translate(-337.07621,-252.0552)"
         id="path155" />
    </clipPath>
    <clipPath
       clipPathUnits="userSpaceOnUse"
       id="clipPath157">
      <path
         d="M 0,500 H 500 V 0 H 0 Z"
         transform="translate(-419.44921,-262.05911)"
         id="path157" />
    </clipPath>
    <clipPath
       clipPathUnits="userSpaceOnUse"
       id="clipPath159">
      <path
         d="M 0,500 H 500 V 0 H 0 Z"
         transform="translate(-348.43551,-262.25831)"
         id="path159" />
    </clipPath>
    <clipPath
       clipPathUnits="userSpaceOnUse"
       id="clipPath161">
      <path
         d="M 0,500 H 500 V 0 H 0 Z"
         transform="translate(-410.23831,-262.05911)"
         id="path161" />
    </clipPath>
    <clipPath
       clipPathUnits="userSpaceOnUse"
       id="clipPath163">
      <path
         d="M 0,500 H 500 V 0 H 0 Z"
         transform="translate(-410.23831,-262.05911)"
         id="path163" />
    </clipPath>
    <clipPath
       clipPathUnits="userSpaceOnUse"
       id="clipPath165">
      <path
         d="M 0,500 H 500 V 0 H 0 Z"
         transform="translate(-398.43361,-262.05911)"
         id="path165" />
    </clipPath>
    <clipPath
       clipPathUnits="userSpaceOnUse"
       id="clipPath167">
      <path
         d="M 0,500 H 500 V 0 H 0 Z"
         transform="translate(-386.44141,-266.1372)"
         id="path167" />
    </clipPath>
    <clipPath
       clipPathUnits="userSpaceOnUse"
       id="clipPath168">
      <path
         d="m 358.415,287.97 h 44.454 v -41.738 h -44.454 z"
         transform="translate(-402.86911,-280.14891)"
         id="path168" />
    </clipPath>
    <clipPath
       clipPathUnits="userSpaceOnUse"
       id="clipPath170">
      <path
         d="M 0,500 H 500 V 0 H 0 Z"
         transform="matrix(1.3333333,0,0,-1.3333333,0,666.66667)"
         id="path170" />
    </clipPath>
  </defs>
  <g
     id="layer-MC1"
     transform="translate(-427.73828,-261.55493)">
    <path
       id="path132"
       d="M 0,0 H -34.206 V 2.044 H -2.042 V 8.17 H 0 Z"
       style="fill:#e6e7e8;fill-opacity:1;fill-rule:nonzero;stroke:none"
       transform="matrix(1.3333333,0,0,-1.3333333,569.8984,276.0228)"
       clip-path="url(#clipPath133)" />
    <path
       id="path134"
       d="m 0,0 c 0,-1.48 -1.201,-2.68 -2.681,-2.68 -1.48,0 -2.679,1.2 -2.679,2.68 0,1.48 1.199,2.681 2.679,2.681 C -1.201,2.681 0,1.48 0,0"
       style="fill:#e6e7e8;fill-opacity:1;fill-rule:nonzero;stroke:none"
       transform="matrix(1.3333333,0,0,-1.3333333,571.94267,265.1296)"
       clip-path="url(#clipPath135)" />
    <path
       id="path136"
       d="m 0,0 h -2.044 v 8.424 h -33.951 v 2.042 H 0 Z"
       style="fill:#e6e7e8;fill-opacity:1;fill-rule:nonzero;stroke:none"
       transform="matrix(1.3333333,0,0,-1.3333333,592.0248,300.35747)"
       clip-path="url(#clipPath137)" />
    <path
       id="path138"
       d="m 0,0 c 0,-1.48 -1.2,-2.68 -2.68,-2.68 -1.482,0 -2.679,1.2 -2.679,2.68 0,1.479 1.197,2.68 2.679,2.68 C -1.2,2.68 0,1.479 0,0"
       style="fill:#e6e7e8;fill-opacity:1;fill-rule:nonzero;stroke:none"
       transform="matrix(1.3333333,0,0,-1.3333333,594.40627,299.9316)"
       clip-path="url(#clipPath139)" />
    <path
       id="path140"
       d="m 427.331,272.69 h -12.926 v 2.042 h 12.926 z"
       style="fill:#e6e7e8;fill-opacity:1;fill-rule:nonzero;stroke:none"
       transform="matrix(1.3333333,0,0,-1.3333333,0,666.66667)"
       clip-path="url(#clipPath141)" />
    <path
       id="path142"
       d="m 0,0 c 0,-1.48 -1.2,-2.682 -2.682,-2.682 -1.479,0 -2.68,1.202 -2.68,2.682 0,1.479 1.201,2.68 2.68,2.68 C -1.2,2.68 0,1.479 0,0"
       style="fill:#e6e7e8;fill-opacity:1;fill-rule:nonzero;stroke:none"
       transform="matrix(1.3333333,0,0,-1.3333333,572.7096,302.22853)"
       clip-path="url(#clipPath143)" />
    <path
       id="path144"
       d="M 0,0 H 34.207 V -2.043 H 2.04 V -8.17 H 0 Z"
       style="fill:#e6e7e8;fill-opacity:1;fill-rule:nonzero;stroke:none"
       transform="matrix(1.3333333,0,0,-1.3333333,452.24613,356.80213)"
       clip-path="url(#clipPath145)" />
    <path
       id="path146"
       d="M 0,0 C 0,1.48 1.201,2.682 2.68,2.682 4.161,2.682 5.359,1.48 5.359,0 5.359,-1.48 4.161,-2.682 2.68,-2.682 1.201,-2.682 0,-1.48 0,0"
       style="fill:#e6e7e8;fill-opacity:1;fill-rule:nonzero;stroke:none"
       transform="matrix(1.3333333,0,0,-1.3333333,450.20307,367.69533)"
       clip-path="url(#clipPath147)" />
    <path
       id="path148"
       d="m 0,0 h 2.041 v -8.426 h 33.952 v -2.043 H 0 Z"
       style="fill:#e6e7e8;fill-opacity:1;fill-rule:nonzero;stroke:none"
       transform="matrix(1.3333333,0,0,-1.3333333,430.1224,332.46547)"
       clip-path="url(#clipPath149)" />
    <path
       id="path150"
       d="M 0,0 C 0,1.48 1.199,2.682 2.68,2.682 4.163,2.682 5.36,1.48 5.36,0 5.36,-1.481 4.163,-2.68 2.68,-2.68 1.199,-2.68 0,-1.481 0,0"
       style="fill:#e6e7e8;fill-opacity:1;fill-rule:nonzero;stroke:none"
       transform="matrix(1.3333333,0,0,-1.3333333,427.73827,332.89253)"
       clip-path="url(#clipPath151)" />
    <path
       id="path152"
       d="m 339.276,252.692 h 12.928 v -2.041 h -12.928 z"
       style="fill:#e6e7e8;fill-opacity:1;fill-rule:nonzero;stroke:none"
       transform="matrix(1.3333333,0,0,-1.3333333,0,666.66667)"
       clip-path="url(#clipPath153)" />
    <path
       id="path154"
       d="m 0,0 c 0,1.48 1.201,2.68 2.683,2.68 1.48,0 2.68,-1.2 2.68,-2.68 0,-1.48 -1.2,-2.682 -2.68,-2.682 C 1.201,-2.682 0,-1.48 0,0"
       style="fill:#e6e7e8;fill-opacity:1;fill-rule:nonzero;stroke:none"
       transform="matrix(1.3333333,0,0,-1.3333333,449.43493,330.59307)"
       clip-path="url(#clipPath155)" />
    <path
       id="path156"
       d="m 0,0 h -5.181 c 0,16.51 -13.432,29.943 -29.942,29.943 v 5.182 C -15.756,35.125 0,19.368 0,0"
       style="fill:#27aae1;fill-opacity:1;fill-rule:nonzero;stroke:none"
       transform="matrix(1.3333333,0,0,-1.3333333,559.2656,317.25453)"
       clip-path="url(#clipPath157)" />
    <path
       id="path158"
       d="m 0,0 h 5.181 c 0,-16.51 13.432,-29.944 29.944,-29.944 v -5.18 C 15.756,-35.124 0,-19.368 0,0"
       style="fill:#27aae1;fill-opacity:1;fill-rule:nonzero;stroke:none"
       transform="matrix(1.3333333,0,0,-1.3333333,464.58067,316.98893)"
       clip-path="url(#clipPath159)" />
    <path
       id="path160"
       d="m 0,0 c 0,-14.309 -11.603,-25.911 -25.912,-25.911 -14.311,0 -25.911,11.602 -25.911,25.911 0,14.311 11.6,25.911 25.911,25.911 C -11.603,25.911 0,14.311 0,0"
       style="fill:#27aae1;fill-opacity:1;fill-rule:nonzero;stroke:none"
       transform="matrix(1.3333333,0,0,-1.3333333,546.9844,317.25453)"
       clip-path="url(#clipPath161)" />
    <path
       id="path162"
       d="m 0,0 c 0,-14.309 -11.603,-25.911 -25.912,-25.911 -14.311,0 -25.911,11.602 -25.911,25.911 0,14.311 11.6,25.911 25.911,25.911 C -11.603,25.911 0,14.311 0,0"
       style="fill:#27aae1;fill-opacity:1;fill-rule:nonzero;stroke:none"
       transform="matrix(1.3333333,0,0,-1.3333333,546.9844,317.25453)"
       clip-path="url(#clipPath163)" />
    <path
       id="path164"
       d="m 0,0 c 0,-7.791 -6.316,-14.106 -14.107,-14.106 -7.791,0 -14.106,6.315 -14.106,14.106 0,7.791 6.315,14.107 14.106,14.107 C -6.316,14.107 0,7.791 0,0"
       style="fill:#4d4753;fill-opacity:1;fill-rule:nonzero;stroke:none"
       transform="matrix(1.3333333,0,0,-1.3333333,531.2448,317.25453)"
       clip-path="url(#clipPath165)" />
    <path
       id="path166"
       d="m 0,0 c 0,-3.09 -2.503,-5.594 -5.592,-5.594 -3.09,0 -5.594,2.504 -5.594,5.594 0,3.088 2.504,5.594 5.594,5.594 C -2.503,5.594 0,3.088 0,0"
       style="fill:#ffffff;fill-opacity:1;fill-rule:nonzero;stroke:none"
       transform="matrix(1.3333333,0,0,-1.3333333,515.2552,311.81707)"
       clip-path="url(#clipPath167)" />
    <g
       opacity="0.199997"
       id="g169"
       clip-path="url(#clipPath170)">
      <path
         d="m 0,0 c -4.707,4.823 -11.272,7.821 -18.543,7.821 -14.311,0 -25.911,-11.6 -25.911,-25.911 0,-5.961 2.019,-11.447 5.401,-15.827 C -28.969,-22.357 -15.396,-9.082 0,0"
         style="fill:#ffffff;fill-opacity:1;fill-rule:nonzero;stroke:none"
         transform="matrix(1.3333333,0,0,-1.3333333,537.1588,293.1348)"
         clip-path="url(#clipPath168)"
         id="path169" />
    </g>
  </g>
</svg>
