<?xml version="1.0" encoding="UTF-8" standalone="no"?>
<!-- Created with Inkscape (http://www.inkscape.org/) -->

<svg
   version="1.1"
   id="svg1"
   width="123.72"
   height="104.67722"
   viewBox="0 0 123.72 104.67722"
   xmlns="http://www.w3.org/2000/svg"
   xmlns:svg="http://www.w3.org/2000/svg">
  <defs
     id="defs1">
    <clipPath
       clipPathUnits="userSpaceOnUse"
       id="clipPath187">
      <path
         d="M 0,500 H 500 V 0 H 0 Z"
         transform="translate(-275.13091,-164.7422)"
         id="path187" />
    </clipPath>
    <clipPath
       clipPathUnits="userSpaceOnUse"
       id="clipPath189">
      <path
         d="M 0,500 H 500 V 0 H 0 Z"
         transform="translate(-245.875,-199.91021)"
         id="path189" />
    </clipPath>
    <clipPath
       clipPathUnits="userSpaceOnUse"
       id="clipPath191">
      <path
         d="M 0,500 H 500 V 0 H 0 Z"
         transform="translate(-247.50241,-124.9473)"
         id="path191" />
    </clipPath>
    <clipPath
       clipPathUnits="userSpaceOnUse"
       id="clipPath193">
      <path
         d="M 0,500 H 500 V 0 H 0 Z"
         transform="translate(-294.48631,-151.09961)"
         id="path193" />
    </clipPath>
    <clipPath
       clipPathUnits="userSpaceOnUse"
       id="clipPath195">
      <path
         d="M 0,500 H 500 V 0 H 0 Z"
         transform="translate(-212.92531,-162.7734)"
         id="path195" />
    </clipPath>
    <clipPath
       clipPathUnits="userSpaceOnUse"
       id="clipPath196">
      <path
         d="m 216.619,194 h 49.85 v -46.227 h -49.85 z"
         transform="translate(-216.61911,-164.7422)"
         id="path196" />
    </clipPath>
    <clipPath
       clipPathUnits="userSpaceOnUse"
       id="clipPath198">
      <path
         d="M 0,500 H 500 V 0 H 0 Z"
         transform="matrix(1.3333333,0,0,-1.3333333,0,666.66667)"
         id="path198" />
    </clipPath>
    <clipPath
       clipPathUnits="userSpaceOnUse"
       id="clipPath199">
      <path
         d="m 207.163,203.455 h 67.449 v -62.648 h -67.449 z"
         transform="translate(-245.875,-203.45511)"
         id="path199" />
    </clipPath>
    <clipPath
       clipPathUnits="userSpaceOnUse"
       id="clipPath201">
      <path
         d="M 0,500 H 500 V 0 H 0 Z"
         transform="matrix(1.3333333,0,0,-1.3333333,0,666.66667)"
         id="path201" />
    </clipPath>
  </defs>
  <g
     id="layer-MC1"
     transform="translate(-268.9284,-395.39307)">
    <path
       id="path186"
       d="m 0,0 c 0,-16.156 -13.099,-29.256 -29.256,-29.256 -16.158,0 -29.256,13.1 -29.256,29.256 0,16.16 13.098,29.258 29.256,29.258 C -13.099,29.258 0,16.16 0,0"
       style="fill:#27aae1;fill-opacity:1;fill-rule:nonzero;stroke:none"
       transform="matrix(1.3333333,0,0,-1.3333333,366.8412,447.0104)"
       clip-path="url(#clipPath187)" />
    <path
       id="path188"
       d="m 0,0 c -19.391,0 -35.166,-15.775 -35.166,-35.168 0,-19.389 15.775,-35.166 35.166,-35.166 19.391,0 35.165,15.777 35.165,35.166 C 35.165,-15.775 19.391,0 0,0 m 0,-73.879 c -21.346,0 -38.712,17.365 -38.712,38.711 0,21.348 17.366,38.713 38.712,38.713 21.347,0 38.712,-17.365 38.712,-38.713 0,-21.346 -17.365,-38.711 -38.712,-38.711"
       style="fill:#4d4753;fill-opacity:1;fill-rule:nonzero;stroke:none"
       transform="matrix(1.3333333,0,0,-1.3333333,327.83333,400.11973)"
       clip-path="url(#clipPath189)" />
    <path
       id="path190"
       d="M 0,0 C -0.064,0 -0.13,0.002 -0.194,0.006 -1.615,0.1 -2.769,1.193 -2.937,2.605 L -8.922,52.979 -17.787,36.43 c -0.516,-0.959 -1.516,-1.561 -2.606,-1.561 h -19.799 c -1.632,0 -2.955,1.326 -2.955,2.957 0,1.633 1.323,2.955 2.955,2.955 h 18.029 l 12.464,23.264 c 0.609,1.135 1.879,1.756 3.154,1.506 1.267,-0.238 2.233,-1.274 2.385,-2.553 L 1.051,19.129 7.477,44.463 c 0.325,1.287 1.469,2.195 2.794,2.226 0.022,0.002 0.048,0.002 0.07,0.002 1.298,0 2.446,-0.847 2.826,-2.093 L 17.846,29.256 H 40.63 c 1.632,0 2.956,-1.324 2.956,-2.955 0,-1.633 -1.324,-2.955 -2.956,-2.955 H 15.66 c -1.3,0 -2.448,0.849 -2.827,2.093 L 10.603,32.748 2.863,2.23 C 2.527,0.91 1.342,0 0,0"
       style="fill:#e6e7e8;fill-opacity:1;fill-rule:nonzero;stroke:none"
       transform="matrix(1.3333333,0,0,-1.3333333,330.0032,500.07027)"
       clip-path="url(#clipPath191)" />
    <path
       id="path192"
       d="m 0,0 c 0,-3.102 -2.514,-5.615 -5.614,-5.615 -3.101,0 -5.615,2.513 -5.615,5.615 0,3.102 2.514,5.615 5.615,5.615 C -2.514,5.615 0,3.102 0,0"
       style="fill:#e6e7e8;fill-opacity:1;fill-rule:nonzero;stroke:none"
       transform="matrix(1.3333333,0,0,-1.3333333,392.6484,465.20053)"
       clip-path="url(#clipPath193)" />
    <path
       id="path194"
       d="m 0,0 c 0,-3.102 -2.515,-5.617 -5.615,-5.617 -3.101,0 -5.614,2.515 -5.614,5.617 0,3.1 2.513,5.613 5.614,5.613 C -2.515,5.613 0,3.1 0,0"
       style="fill:#e6e7e8;fill-opacity:1;fill-rule:nonzero;stroke:none"
       transform="matrix(1.3333333,0,0,-1.3333333,283.9004,449.63547)"
       clip-path="url(#clipPath195)" />
    <g
       opacity="0.199997"
       id="g197"
       clip-path="url(#clipPath198)">
      <path
         d="M 0,0 C 0,-6.328 2.017,-12.182 5.433,-16.969 18.298,-3.689 33.355,9.795 49.85,20.777 44.562,26.02 37.288,29.258 29.256,29.258 13.098,29.258 0,16.16 0,0"
         style="fill:#ffffff;fill-opacity:1;fill-rule:nonzero;stroke:none"
         transform="matrix(1.3333333,0,0,-1.3333333,288.82547,447.0104)"
         clip-path="url(#clipPath196)"
         id="path197" />
    </g>
    <g
       opacity="0.199997"
       id="g200"
       clip-path="url(#clipPath201)">
      <path
         d="m 0,0 c -21.346,0 -38.712,-17.365 -38.712,-38.713 0,-9.031 3.116,-17.34 8.319,-23.935 0.804,0.877 1.616,1.752 2.44,2.63 -4.521,5.918 -7.213,13.301 -7.213,21.305 0,19.393 15.775,35.168 35.166,35.168 10.103,0 19.219,-4.289 25.639,-11.135 1.028,0.639 2.062,1.258 3.098,1.875 C 21.647,-4.947 11.391,0 0,0"
         style="fill:#ffffff;fill-opacity:1;fill-rule:nonzero;stroke:none"
         transform="matrix(1.3333333,0,0,-1.3333333,327.83333,395.3932)"
         clip-path="url(#clipPath199)"
         id="path200" />
    </g>
  </g>
</svg>
