<?xml version="1.0" encoding="UTF-8" standalone="no"?>
<!-- Created with Inkscape (http://www.inkscape.org/) -->

<svg
   version="1.1"
   id="svg1"
   width="141.11012"
   height="97.993561"
   viewBox="0 0 141.11012 97.993561"
   xmlns="http://www.w3.org/2000/svg"
   xmlns:svg="http://www.w3.org/2000/svg">
  <defs
     id="defs1">
    <clipPath
       clipPathUnits="userSpaceOnUse"
       id="clipPath174">
      <path
         d="M 0,500 H 500 V 0 H 0 Z"
         transform="translate(-245.3989,-95.524402)"
         id="path174" />
    </clipPath>
    <clipPath
       clipPathUnits="userSpaceOnUse"
       id="clipPath176">
      <path
         d="M 0,500 H 500 V 0 H 0 Z"
         transform="translate(-241.3267,-96.280305)"
         id="path176" />
    </clipPath>
    <clipPath
       clipPathUnits="userSpaceOnUse"
       id="clipPath178">
      <path
         d="M 0,500 H 500 V 0 H 0 Z"
         transform="translate(-235.32471,-97.3926)"
         id="path178" />
    </clipPath>
    <clipPath
       clipPathUnits="userSpaceOnUse"
       id="clipPath180">
      <path
         d="M 0,500 H 500 V 0 H 0 Z"
         transform="translate(-228.78271,-109.542)"
         id="path180" />
    </clipPath>
    <clipPath
       clipPathUnits="userSpaceOnUse"
       id="clipPath182">
      <path
         d="M 0,500 H 500 V 0 H 0 Z"
         transform="translate(-215.63871,-114.4482)"
         id="path182" />
    </clipPath>
    <clipPath
       clipPathUnits="userSpaceOnUse"
       id="clipPath184">
      <path
         d="M 0,500 H 500 V 0 H 0 Z"
         transform="translate(-204.81931,-105.5156)"
         id="path184" />
    </clipPath>
    <clipPath
       clipPathUnits="userSpaceOnUse"
       id="clipPath186">
      <path
         d="M 0,500 H 500 V 0 H 0 Z"
         transform="translate(-207.14401,-91.681605)"
         id="path186" />
    </clipPath>
    <clipPath
       clipPathUnits="userSpaceOnUse"
       id="clipPath188">
      <path
         d="M 0,500 H 500 V 0 H 0 Z"
         transform="translate(-220.2886,-86.775405)"
         id="path188" />
    </clipPath>
    <clipPath
       clipPathUnits="userSpaceOnUse"
       id="clipPath190">
      <path
         d="M 0,500 H 500 V 0 H 0 Z"
         transform="translate(-231.10891,-95.707005)"
         id="path190" />
    </clipPath>
    <clipPath
       clipPathUnits="userSpaceOnUse"
       id="clipPath192">
      <path
         d="M 0,500 H 500 V 0 H 0 Z"
         transform="translate(-223.1035,-101.0762)"
         id="path192" />
    </clipPath>
    <clipPath
       clipPathUnits="userSpaceOnUse"
       id="clipPath193">
      <path
         d="m 186.189,132.262 h 61.865 V 70.7305 h -61.865 z"
         transform="translate(-243.72411,-119.291)"
         id="path193" />
    </clipPath>
    <clipPath
       clipPathUnits="userSpaceOnUse"
       id="clipPath194">
      <path
         d="m 186.189,132.262 h 61.865 V 70.7305 h -61.865 z"
         transform="translate(-231.6367,-124.9355)"
         id="path194" />
    </clipPath>
    <clipPath
       clipPathUnits="userSpaceOnUse"
       id="clipPath197">
      <path
         d="M 0,500 H 500 V 0 H 0 Z"
         transform="matrix(1.3333333,0,0,-1.3333333,0,666.66667)"
         id="path197" />
    </clipPath>
    <clipPath
       clipPathUnits="userSpaceOnUse"
       id="clipPath199">
      <path
         d="M 0,500 H 500 V 0 H 0 Z"
         transform="translate(-288.80761,-78.437504)"
         id="path199" />
    </clipPath>
    <clipPath
       clipPathUnits="userSpaceOnUse"
       id="clipPath201">
      <path
         d="M 0,500 H 500 V 0 H 0 Z"
         transform="translate(-285.79201,-78.997102)"
         id="path201" />
    </clipPath>
    <clipPath
       clipPathUnits="userSpaceOnUse"
       id="clipPath203">
      <path
         d="M 0,500 H 500 V 0 H 0 Z"
         transform="translate(-281.34861,-79.822304)"
         id="path203" />
    </clipPath>
    <clipPath
       clipPathUnits="userSpaceOnUse"
       id="clipPath205">
      <path
         d="M 0,500 H 500 V 0 H 0 Z"
         transform="translate(-276.5029,-88.818405)"
         id="path205" />
    </clipPath>
    <clipPath
       clipPathUnits="userSpaceOnUse"
       id="clipPath207">
      <path
         d="M 0,500 H 500 V 0 H 0 Z"
         transform="translate(-266.76951,-92.450205)"
         id="path207" />
    </clipPath>
    <clipPath
       clipPathUnits="userSpaceOnUse"
       id="clipPath209">
      <path
         d="M 0,500 H 500 V 0 H 0 Z"
         transform="translate(-258.7588,-85.835902)"
         id="path209" />
    </clipPath>
    <clipPath
       clipPathUnits="userSpaceOnUse"
       id="clipPath211">
      <path
         d="M 0,500 H 500 V 0 H 0 Z"
         transform="translate(-260.4805,-75.591802)"
         id="path211" />
    </clipPath>
    <clipPath
       clipPathUnits="userSpaceOnUse"
       id="clipPath213">
      <path
         d="M 0,500 H 500 V 0 H 0 Z"
         transform="translate(-270.21391,-71.960002)"
         id="path213" />
    </clipPath>
    <clipPath
       clipPathUnits="userSpaceOnUse"
       id="clipPath215">
      <path
         d="M 0,500 H 500 V 0 H 0 Z"
         transform="translate(-278.22561,-78.573202)"
         id="path215" />
    </clipPath>
    <clipPath
       clipPathUnits="userSpaceOnUse"
       id="clipPath217">
      <path
         d="M 0,500 H 500 V 0 H 0 Z"
         transform="translate(-272.80471,-82.382805)"
         id="path217" />
    </clipPath>
    <clipPath
       clipPathUnits="userSpaceOnUse"
       id="clipPath218">
      <path
         d="m 244.962,105.644 h 46.347 V 59.7568 h -46.347 z"
         transform="translate(-287.5684,-96.037102)"
         id="path218" />
    </clipPath>
    <clipPath
       clipPathUnits="userSpaceOnUse"
       id="clipPath219">
      <path
         d="m 244.962,105.644 h 46.347 V 59.7568 h -46.347 z"
         transform="translate(-278.61331,-100.2021)"
         id="path219" />
    </clipPath>
    <clipPath
       clipPathUnits="userSpaceOnUse"
       id="clipPath222">
      <path
         d="M 0,500 H 500 V 0 H 0 Z"
         transform="matrix(1.3333333,0,0,-1.3333333,0,666.66667)"
         id="path222" />
    </clipPath>
  </defs>
  <g
     id="layer-MC1"
     transform="translate(-248.25201,-490.31735)">
    <path
       id="path173"
       d="m 0,0 c -2.808,-15.15 -17.37,-25.159 -32.523,-22.35 -15.151,2.809 -25.158,17.372 -22.349,32.525 2.809,15.15 17.371,25.158 32.523,22.348 C -7.197,29.714 2.81,15.15 0,0"
       style="fill:#e6e7e8;fill-opacity:1;fill-rule:nonzero;stroke:none"
       transform="matrix(1.3333333,0,0,-1.3333333,327.19853,539.3008)"
       clip-path="url(#clipPath174)" />
    <path
       id="path175"
       d="m 0,0 c -2.392,-12.901 -14.792,-21.425 -27.695,-19.031 -12.903,2.391 -21.425,14.792 -19.032,27.694 2.392,12.902 14.792,21.424 27.694,19.032 C -6.129,25.302 2.393,12.902 0,0"
       style="fill:#4d4753;fill-opacity:1;fill-rule:nonzero;stroke:none"
       transform="matrix(1.3333333,0,0,-1.3333333,321.76893,538.29293)"
       clip-path="url(#clipPath176)" />
    <path
       id="path177"
       d="m 0,0 c -1.776,-9.586 -10.992,-15.921 -20.581,-14.144 -9.589,1.778 -15.919,10.995 -14.142,20.583 1.777,9.587 10.991,15.92 20.58,14.142 C -4.554,18.804 1.778,9.589 0,0"
       style="fill:#3eb4e6;fill-opacity:1;fill-rule:nonzero;stroke:none"
       transform="matrix(1.3333333,0,0,-1.3333333,313.76627,536.80987)"
       clip-path="url(#clipPath178)" />
    <path
       id="path179"
       d="M 0,0 -17.719,3.285 -14.115,22.72 3.604,19.435 Z"
       style="fill:#4d4753;fill-opacity:1;fill-rule:nonzero;stroke:none"
       transform="matrix(1.3333333,0,0,-1.3333333,305.0436,520.61067)"
       clip-path="url(#clipPath180)" />
    <path
       id="path181"
       d="m 0,0 -11.705,-13.704 -15.028,12.838 11.705,13.702 z"
       style="fill:#4d4753;fill-opacity:1;fill-rule:nonzero;stroke:none"
       transform="matrix(1.3333333,0,0,-1.3333333,287.51827,514.06907)"
       clip-path="url(#clipPath182)" />
    <path
       id="path183"
       d="m 0,0 6.015,-16.986 -18.633,-6.597 -6.012,16.986 z"
       style="fill:#4d4753;fill-opacity:1;fill-rule:nonzero;stroke:none"
       transform="matrix(1.3333333,0,0,-1.3333333,273.0924,525.9792)"
       clip-path="url(#clipPath184)" />
    <path
       id="path185"
       d="m 0,0 17.72,-3.285 -3.604,-19.434 -17.718,3.285 z"
       style="fill:#4d4753;fill-opacity:1;fill-rule:nonzero;stroke:none"
       transform="matrix(1.3333333,0,0,-1.3333333,276.192,544.42453)"
       clip-path="url(#clipPath186)" />
    <path
       id="path187"
       d="M 0,0 11.706,13.705 26.732,0.866 15.027,-12.835 Z"
       style="fill:#4d4753;fill-opacity:1;fill-rule:nonzero;stroke:none"
       transform="matrix(1.3333333,0,0,-1.3333333,293.71813,550.96613)"
       clip-path="url(#clipPath188)" />
    <path
       id="path189"
       d="M 0,0 -6.018,16.99 12.615,23.584 18.63,6.596 Z"
       style="fill:#4d4753;fill-opacity:1;fill-rule:nonzero;stroke:none"
       transform="matrix(1.3333333,0,0,-1.3333333,308.1452,539.05733)"
       clip-path="url(#clipPath190)" />
    <path
       id="path191"
       d="m 0,0 c 0,-2.864 -2.323,-5.186 -5.187,-5.186 -2.864,0 -5.187,2.322 -5.187,5.186 0,2.863 2.323,5.187 5.187,5.187 C -2.323,5.187 0,2.863 0,0"
       style="fill:#ffffff;fill-opacity:1;fill-rule:nonzero;stroke:none"
       transform="matrix(1.3333333,0,0,-1.3333333,297.47133,531.8984)"
       clip-path="url(#clipPath192)" />
    <g
       opacity="0.199997"
       id="g196"
       clip-path="url(#clipPath197)">
      <path
         d="m 0,0 -3.881,-1.375 c -0.358,0.453 -0.752,0.876 -1.137,1.306 l -39.359,-39.359 c 1.506,-1.352 3.149,-2.566 4.943,-3.575 l -0.748,-4.04 8.181,-1.518 36.331,36.332 z"
         style="fill:#e6e7e8;fill-opacity:1;fill-rule:nonzero;stroke:none"
         transform="matrix(1.3333333,0,0,-1.3333333,324.96547,507.612)"
         clip-path="url(#clipPath193)"
         id="path195" />
      <path
         d="m 0,0 0.75,4.041 -17.719,3.285 -0.75,-4.043 c -2.373,-0.345 -4.656,-1.026 -6.824,-1.947 l -15.223,-15.222 0.159,-0.136 c -0.656,-1.656 -1.166,-3.398 -1.503,-5.214 -0.336,-1.82 -0.484,-3.627 -0.466,-5.409 l -3.872,-1.372 6.013,-16.986 2.437,0.862 40.085,40.085 C 2.104,-1.315 1.086,-0.612 0,0"
         style="fill:#e6e7e8;fill-opacity:1;fill-rule:nonzero;stroke:none"
         transform="matrix(1.3333333,0,0,-1.3333333,308.84893,500.086)"
         clip-path="url(#clipPath194)"
         id="path196" />
    </g>
    <path
       id="path198"
       d="m 0,0 c -2.081,-11.219 -12.864,-18.63 -24.083,-16.55 -11.221,2.081 -18.629,12.866 -16.55,24.084 2.08,11.22 12.864,18.631 24.082,16.552 C -5.329,22.004 2.079,11.22 0,0"
       style="fill:#e6e7e8;fill-opacity:1;fill-rule:nonzero;stroke:none"
       transform="matrix(1.3333333,0,0,-1.3333333,385.0768,562.08333)"
       clip-path="url(#clipPath199)" />
    <path
       id="path200"
       d="m 0,0 c -1.771,-9.553 -10.955,-15.864 -20.511,-14.093 -9.552,1.773 -15.861,10.954 -14.09,20.508 1.771,9.554 10.954,15.864 20.506,14.092 C -4.54,18.736 1.771,9.556 0,0"
       style="fill:#4d4753;fill-opacity:1;fill-rule:nonzero;stroke:none"
       transform="matrix(1.3333333,0,0,-1.3333333,381.056,561.3372)"
       clip-path="url(#clipPath201)" />
    <path
       id="path202"
       d="m 0,0 c -1.318,-7.101 -8.143,-11.791 -15.242,-10.475 -7.1,1.318 -11.789,8.141 -10.474,15.243 1.318,7.099 8.142,11.788 15.242,10.473 C -3.373,13.924 1.316,7.1 0,0"
       style="fill:#3eb4e6;fill-opacity:1;fill-rule:nonzero;stroke:none"
       transform="matrix(1.3333333,0,0,-1.3333333,375.13147,560.23693)"
       clip-path="url(#clipPath203)" />
    <path
       id="path204"
       d="m 0,0 -13.12,2.434 2.668,14.391 13.12,-2.433 z"
       style="fill:#4d4753;fill-opacity:1;fill-rule:nonzero;stroke:none"
       transform="matrix(1.3333333,0,0,-1.3333333,368.67053,548.24213)"
       clip-path="url(#clipPath205)" />
    <path
       id="path206"
       d="m 0,0 -8.668,-10.147 -11.127,9.505 8.666,10.148 z"
       style="fill:#4d4753;fill-opacity:1;fill-rule:nonzero;stroke:none"
       transform="matrix(1.3333333,0,0,-1.3333333,355.69267,543.39973)"
       clip-path="url(#clipPath207)" />
    <path
       id="path208"
       d="m 0,0 4.454,-12.578 -13.799,-4.885 -4.452,12.579 z"
       style="fill:#4d4753;fill-opacity:1;fill-rule:nonzero;stroke:none"
       transform="matrix(1.3333333,0,0,-1.3333333,345.01173,552.2188)"
       clip-path="url(#clipPath209)" />
    <path
       id="path210"
       d="m 0,0 13.12,-2.434 -2.669,-14.391 -13.12,2.433 z"
       style="fill:#4d4753;fill-opacity:1;fill-rule:nonzero;stroke:none"
       transform="matrix(1.3333333,0,0,-1.3333333,347.30733,565.8776)"
       clip-path="url(#clipPath211)" />
    <path
       id="path212"
       d="M 0,0 8.665,10.148 19.795,0.642 11.127,-9.505 Z"
       style="fill:#4d4753;fill-opacity:1;fill-rule:nonzero;stroke:none"
       transform="matrix(1.3333333,0,0,-1.3333333,360.2852,570.72)"
       clip-path="url(#clipPath213)" />
    <path
       id="path214"
       d="M 0,0 -4.455,12.581 9.343,17.464 13.796,4.884 Z"
       style="fill:#4d4753;fill-opacity:1;fill-rule:nonzero;stroke:none"
       transform="matrix(1.3333333,0,0,-1.3333333,370.96747,561.9024)"
       clip-path="url(#clipPath215)" />
    <path
       id="path216"
       d="m 0,0 c 0,-2.446 -1.982,-4.429 -4.429,-4.429 -2.447,0 -4.43,1.983 -4.43,4.429 0,2.446 1.983,4.43 4.43,4.43 C -1.982,4.43 0,2.446 0,0"
       style="fill:#ffffff;fill-opacity:1;fill-rule:nonzero;stroke:none"
       transform="matrix(1.3333333,0,0,-1.3333333,363.7396,556.82293)"
       clip-path="url(#clipPath217)" />
    <g
       opacity="0.199997"
       id="g221"
       clip-path="url(#clipPath222)">
      <path
         d="m 0,0 -2.891,-1.022 c -0.012,0.017 -0.028,0.033 -0.043,0.049 l -28.992,-28.992 c 0.858,-0.683 1.757,-1.32 2.728,-1.865 l -0.559,-3.007 7.78,-1.443 25.717,25.716 z"
         style="fill:#e6e7e8;fill-opacity:1;fill-rule:nonzero;stroke:none"
         transform="matrix(1.3333333,0,0,-1.3333333,383.42453,538.6172)"
         clip-path="url(#clipPath218)"
         id="path220" />
      <path
         d="M 0,0 0.558,3.008 -12.563,5.441 -13.12,2.434 C -14.257,2.267 -15.361,1.987 -16.44,1.64 l -13.338,-13.339 c -0.265,-0.822 -0.499,-1.66 -0.661,-2.531 -0.249,-1.346 -0.354,-2.685 -0.341,-4.003 l -2.871,-1.017 4.452,-12.579 2.888,1.022 c 0.129,-0.165 0.279,-0.312 0.413,-0.471 L 3.17,-2.209 C 2.192,-1.382 1.135,-0.638 0,0"
         style="fill:#e6e7e8;fill-opacity:1;fill-rule:nonzero;stroke:none"
         transform="matrix(1.3333333,0,0,-1.3333333,371.4844,533.06387)"
         clip-path="url(#clipPath219)"
         id="path221" />
    </g>
  </g>
</svg>
