<?xml version="1.0" encoding="UTF-8" standalone="no"?>
<!-- Created with Inkscape (http://www.inkscape.org/) -->

<svg
   version="1.1"
   id="svg1"
   width="119.3197"
   height="135.04108"
   viewBox="0 0 119.3197 135.04108"
   xmlns="http://www.w3.org/2000/svg"
   xmlns:svg="http://www.w3.org/2000/svg">
  <defs
     id="defs1">
    <clipPath
       clipPathUnits="userSpaceOnUse"
       id="clipPath224">
      <path
         d="M 0,500 H 500 V 0 H 0 Z"
         transform="translate(-409.52641,-107.1152)"
         id="path224" />
    </clipPath>
    <clipPath
       clipPathUnits="userSpaceOnUse"
       id="clipPath226">
      <path
         d="M 0,500 H 500 V 0 H 0 Z"
         transform="translate(-391.49021,-107.8086)"
         id="path226" />
    </clipPath>
    <clipPath
       clipPathUnits="userSpaceOnUse"
       id="clipPath228">
      <path
         d="M 0,500 H 500 V 0 H 0 Z"
         transform="translate(-420.62601,-59.133801)"
         id="path228" />
    </clipPath>
    <clipPath
       clipPathUnits="userSpaceOnUse"
       id="clipPath230">
      <path
         d="M 0,500 H 500 V 0 H 0 Z"
         id="path230" />
    </clipPath>
    <clipPath
       clipPathUnits="userSpaceOnUse"
       id="clipPath232">
      <path
         d="M 0,500 H 500 V 0 H 0 Z"
         id="path232" />
    </clipPath>
    <clipPath
       clipPathUnits="userSpaceOnUse"
       id="clipPath234">
      <path
         d="M 0,500 H 500 V 0 H 0 Z"
         transform="translate(-362.70121,-105.7275)"
         id="path234" />
    </clipPath>
    <clipPath
       clipPathUnits="userSpaceOnUse"
       id="clipPath236">
      <path
         d="M 0,500 H 500 V 0 H 0 Z"
         transform="translate(-372.41311,-72.661102)"
         id="path236" />
    </clipPath>
    <clipPath
       clipPathUnits="userSpaceOnUse"
       id="clipPath238">
      <path
         d="M 0,500 H 500 V 0 H 0 Z"
         transform="translate(-381.43071,-54.970701)"
         id="path238" />
    </clipPath>
    <clipPath
       clipPathUnits="userSpaceOnUse"
       id="clipPath240">
      <path
         d="M 0,500 H 500 V 0 H 0 Z"
         id="path240" />
    </clipPath>
    <clipPath
       clipPathUnits="userSpaceOnUse"
       id="clipPath242">
      <path
         d="M 0,500 H 500 V 0 H 0 Z"
         id="path242" />
    </clipPath>
    <clipPath
       clipPathUnits="userSpaceOnUse"
       id="clipPath244">
      <path
         d="M 0,500 H 500 V 0 H 0 Z"
         id="path244" />
    </clipPath>
    <clipPath
       clipPathUnits="userSpaceOnUse"
       id="clipPath246">
      <path
         d="M 0,500 H 500 V 0 H 0 Z"
         transform="translate(-376.11331,-150.58691)"
         id="path246" />
    </clipPath>
    <clipPath
       clipPathUnits="userSpaceOnUse"
       id="clipPath248">
      <path
         d="M 0,500 H 500 V 0 H 0 Z"
         transform="translate(-381.89451,-132.3203)"
         id="path248" />
    </clipPath>
    <clipPath
       clipPathUnits="userSpaceOnUse"
       id="clipPath250">
      <path
         d="M 0,500 H 500 V 0 H 0 Z"
         transform="translate(-348.71091,-121.91501)"
         id="path250" />
    </clipPath>
    <clipPath
       clipPathUnits="userSpaceOnUse"
       id="clipPath252">
      <path
         d="M 0,500 H 500 V 0 H 0 Z"
         transform="translate(-431.26371,-124.3428)"
         id="path252" />
    </clipPath>
    <clipPath
       clipPathUnits="userSpaceOnUse"
       id="clipPath254">
      <path
         d="M 0,500 H 500 V 0 H 0 Z"
         transform="translate(-424.09471,-60.520499)"
         id="path254" />
    </clipPath>
    <clipPath
       clipPathUnits="userSpaceOnUse"
       id="clipPath256">
      <path
         d="M 0,500 H 500 V 0 H 0 Z"
         transform="translate(-395.07421,-65.724599)"
         id="path256" />
    </clipPath>
    <clipPath
       clipPathUnits="userSpaceOnUse"
       id="clipPath258">
      <path
         d="M 0,500 H 500 V 0 H 0 Z"
         transform="translate(-365.47661,-56.244104)"
         id="path258" />
    </clipPath>
    <clipPath
       clipPathUnits="userSpaceOnUse"
       id="clipPath260">
      <path
         d="M 0,500 H 500 V 0 H 0 Z"
         transform="translate(-375.88181,-73.932599)"
         id="path260" />
    </clipPath>
    <clipPath
       clipPathUnits="userSpaceOnUse"
       id="clipPath261">
      <path
         d="m 346.398,113.358 h 68.046 V 84.2227 h -68.046 z"
         transform="translate(-414.44431,-113.35841)"
         id="path261" />
    </clipPath>
    <clipPath
       clipPathUnits="userSpaceOnUse"
       id="clipPath262">
      <path
         d="m 346.398,113.358 h 68.046 V 84.2227 h -68.046 z"
         transform="translate(-355.04101,-113.35841)"
         id="path262" />
    </clipPath>
    <clipPath
       clipPathUnits="userSpaceOnUse"
       id="clipPath265">
      <path
         d="M 0,500 H 500 V 0 H 0 Z"
         transform="matrix(1.3333333,0,0,-1.3333333,0,666.66667)"
         id="path265" />
    </clipPath>
  </defs>
  <g
     id="layer-MC1"
     transform="translate(-455.69856,-461.25878)">
    <path
       id="path223"
       d="M 0,0 H -2.775 V 18.729 H 18.384 V 15.955 H 0 Z"
       style="fill:#e6e7e8;fill-opacity:1;fill-rule:nonzero;stroke:none"
       transform="matrix(1.3333333,0,0,-1.3333333,546.0352,523.8464)"
       clip-path="url(#clipPath224)" />
    <path
       id="path225"
       d="M 0,0 H -2.774 V 41.276 H -18.73 v 2.775 H 0 Z"
       style="fill:#e6e7e8;fill-opacity:1;fill-rule:nonzero;stroke:none"
       transform="matrix(1.3333333,0,0,-1.3333333,521.98693,522.92187)"
       clip-path="url(#clipPath226)" />
    <path
       id="path227"
       d="m 0,0 h -18.729 v 36.882 h 2.774 V 2.774 H 0 Z"
       style="fill:#e6e7e8;fill-opacity:1;fill-rule:nonzero;stroke:none"
       transform="matrix(1.3333333,0,0,-1.3333333,560.83467,587.8216)"
       clip-path="url(#clipPath228)" />
    <path
       id="path229"
       d="m 379.697,106.769 h -2.775 v 26.014 h 2.775 z"
       style="fill:#e6e7e8;fill-opacity:1;fill-rule:nonzero;stroke:none"
       transform="matrix(1.3333333,0,0,-1.3333333,0,666.66667)"
       clip-path="url(#clipPath230)" />
    <path
       id="path231"
       d="m 393.224,65.725 h -2.773 v 25.088 h 2.773 z"
       style="fill:#e6e7e8;fill-opacity:1;fill-rule:nonzero;stroke:none"
       transform="matrix(1.3333333,0,0,-1.3333333,0,666.66667)"
       clip-path="url(#clipPath232)" />
    <path
       id="path233"
       d="M 0,0 H -2.775 V 14.915 H -17.69 V 17.69 H 0 Z"
       style="fill:#e6e7e8;fill-opacity:1;fill-rule:nonzero;stroke:none"
       transform="matrix(1.3333333,0,0,-1.3333333,483.6016,525.69667)"
       clip-path="url(#clipPath234)" />
    <path
       id="path235"
       d="m 0,0 h -14.222 v 16.764 h 2.776 V 2.775 H 0 Z"
       style="fill:#e6e7e8;fill-opacity:1;fill-rule:nonzero;stroke:none"
       transform="matrix(1.3333333,0,0,-1.3333333,496.5508,569.7852)"
       clip-path="url(#clipPath236)" />
    <path
       id="path237"
       d="m 0,0 h -19.424 v 2.775 h 16.65 V 33.761 H 0 Z"
       style="fill:#e6e7e8;fill-opacity:1;fill-rule:nonzero;stroke:none"
       transform="matrix(1.3333333,0,0,-1.3333333,508.57427,593.3724)"
       clip-path="url(#clipPath238)" />
    <path
       id="path239"
       d="m 415.771,84.223 h -69.372 v 29.136 h 69.372 z"
       style="fill:#4d4753;fill-opacity:1;fill-rule:nonzero;stroke:none"
       transform="matrix(1.3333333,0,0,-1.3333333,0,666.66667)"
       clip-path="url(#clipPath240)" />
    <path
       id="path241"
       d="m 396.692,94.976 h -31.216 v 7.63 h 31.216 z"
       style="fill:#e6e7e8;fill-opacity:1;fill-rule:nonzero;stroke:none"
       transform="matrix(1.3333333,0,0,-1.3333333,0,666.66667)"
       clip-path="url(#clipPath242)" />
    <path
       id="path243"
       d="m 360.735,98.559 h -10.868 v 10.868 h 10.868 z"
       style="fill:#3eb4e6;fill-opacity:1;fill-rule:nonzero;stroke:none"
       transform="matrix(1.3333333,0,0,-1.3333333,0,666.66667)"
       clip-path="url(#clipPath244)" />
    <path
       id="path245"
       d="m 0,0 c 0,-1.915 -1.553,-3.469 -3.468,-3.469 -1.917,0 -3.469,1.554 -3.469,3.469 0,1.916 1.552,3.469 3.469,3.469 C -1.553,3.469 0,1.916 0,0"
       style="fill:#3eb4e6;fill-opacity:1;fill-rule:nonzero;stroke:none"
       transform="matrix(1.3333333,0,0,-1.3333333,501.4844,465.88413)"
       clip-path="url(#clipPath246)" />
    <path
       id="path247"
       d="m 0,0 c 0,-1.916 -1.553,-3.468 -3.469,-3.468 -1.916,0 -3.468,1.552 -3.468,3.468 0,1.916 1.552,3.469 3.468,3.469 C -1.553,3.469 0,1.916 0,0"
       style="fill:#3eb4e6;fill-opacity:1;fill-rule:nonzero;stroke:none"
       transform="matrix(1.3333333,0,0,-1.3333333,509.19267,490.2396)"
       clip-path="url(#clipPath248)" />
    <path
       id="path249"
       d="m 0,0 c 0,-1.916 -1.552,-3.47 -3.468,-3.47 -1.916,0 -3.469,1.554 -3.469,3.47 0,1.915 1.553,3.469 3.469,3.469 C -1.552,3.469 0,1.915 0,0"
       style="fill:#3eb4e6;fill-opacity:1;fill-rule:nonzero;stroke:none"
       transform="matrix(1.3333333,0,0,-1.3333333,464.94787,504.11333)"
       clip-path="url(#clipPath250)" />
    <path
       id="path251"
       d="m 0,0 c 0,-1.915 -1.554,-3.469 -3.469,-3.469 -1.916,0 -3.468,1.554 -3.468,3.469 0,1.916 1.552,3.469 3.468,3.469 C -1.554,3.469 0,1.916 0,0"
       style="fill:#3eb4e6;fill-opacity:1;fill-rule:nonzero;stroke:none"
       transform="matrix(1.3333333,0,0,-1.3333333,575.01827,500.87627)"
       clip-path="url(#clipPath252)" />
    <path
       id="path253"
       d="m 0,0 c 0,-1.915 -1.553,-3.469 -3.469,-3.469 -1.916,0 -3.468,1.554 -3.468,3.469 0,1.916 1.552,3.47 3.468,3.47 C -1.553,3.47 0,1.916 0,0"
       style="fill:#3eb4e6;fill-opacity:1;fill-rule:nonzero;stroke:none"
       transform="matrix(1.3333333,0,0,-1.3333333,565.4596,585.97267)"
       clip-path="url(#clipPath254)" />
    <path
       id="path255"
       d="m 0,0 c 0,-1.917 -1.553,-3.469 -3.469,-3.469 -1.916,0 -3.469,1.552 -3.469,3.469 0,1.915 1.553,3.468 3.469,3.468 C -1.553,3.468 0,1.915 0,0"
       style="fill:#3eb4e6;fill-opacity:1;fill-rule:nonzero;stroke:none"
       transform="matrix(1.3333333,0,0,-1.3333333,526.7656,579.03387)"
       clip-path="url(#clipPath256)" />
    <path
       id="path257"
       d="m 0,0 c 0,-1.917 -1.554,-3.469 -3.47,-3.469 -1.915,0 -3.468,1.552 -3.468,3.469 0,1.915 1.553,3.468 3.468,3.468 C -1.554,3.468 0,1.915 0,0"
       style="fill:#3eb4e6;fill-opacity:1;fill-rule:nonzero;stroke:none"
       transform="matrix(1.3333333,0,0,-1.3333333,487.30213,591.67453)"
       clip-path="url(#clipPath258)" />
    <path
       id="path259"
       d="m 0,0 c 0,-1.915 -1.554,-3.468 -3.469,-3.468 -1.916,0 -3.468,1.553 -3.468,3.468 0,1.917 1.552,3.469 3.468,3.469 C -1.554,3.469 0,1.917 0,0"
       style="fill:#3eb4e6;fill-opacity:1;fill-rule:nonzero;stroke:none"
       transform="matrix(1.3333333,0,0,-1.3333333,501.17573,568.08987)"
       clip-path="url(#clipPath260)" />
    <g
       opacity="0.199997"
       id="g264"
       clip-path="url(#clipPath265)">
      <path
         d="M 0,0 H -21.233 L -50.37,-29.136 h 21.232 z"
         style="fill:#ffffff;fill-opacity:1;fill-rule:nonzero;stroke:none"
         transform="matrix(1.3333333,0,0,-1.3333333,552.5924,515.52213)"
         clip-path="url(#clipPath261)"
         id="path263" />
      <path
         d="M 0,0 -8.643,-8.642 V -29.136 H 1.489 L 30.627,0 Z"
         style="fill:#ffffff;fill-opacity:1;fill-rule:nonzero;stroke:none"
         transform="matrix(1.3333333,0,0,-1.3333333,473.388,515.52213)"
         clip-path="url(#clipPath262)"
         id="path264" />
    </g>
  </g>
</svg>
