<?xml version="1.0" encoding="UTF-8" standalone="no"?>
<!-- Created with Inkscape (http://www.inkscape.org/) -->

<svg
   version="1.1"
   id="svg1"
   width="92.684143"
   height="109.30707"
   viewBox="0 0 92.684143 109.30707"
   xmlns="http://www.w3.org/2000/svg"
   xmlns:svg="http://www.w3.org/2000/svg">
  <defs
     id="defs1">
    <clipPath
       clipPathUnits="userSpaceOnUse"
       id="clipPath80">
      <path
         d="M 0,500 H 500 V 0 H 0 Z"
         transform="translate(-388.82621,-370.59031)"
         id="path80" />
    </clipPath>
    <clipPath
       clipPathUnits="userSpaceOnUse"
       id="clipPath82">
      <path
         d="M 0,500 H 500 V 0 H 0 Z"
         transform="translate(-387.85251,-374.14011)"
         id="path82" />
    </clipPath>
    <clipPath
       clipPathUnits="userSpaceOnUse"
       id="clipPath83">
      <path
         d="m 359.593,406.715 h 46.082 v -42.744 h -46.082 z"
         transform="translate(-384.57521,-386.09521)"
         id="path83" />
    </clipPath>
    <clipPath
       clipPathUnits="userSpaceOnUse"
       id="clipPath85">
      <path
         d="M 0,500 H 500 V 0 H 0 Z"
         transform="matrix(1.3333333,0,0,-1.3333333,0,666.66667)"
         id="path85" />
    </clipPath>
    <clipPath
       clipPathUnits="userSpaceOnUse"
       id="clipPath87">
      <path
         d="M 0,500 H 500 V 0 H 0 Z"
         transform="translate(-376.17871,-332.81101)"
         id="path87" />
    </clipPath>
    <clipPath
       clipPathUnits="userSpaceOnUse"
       id="clipPath89">
      <path
         d="M 0,500 H 500 V 0 H 0 Z"
         id="path89" />
    </clipPath>
  </defs>
  <g
     id="layer-MC1"
     transform="translate(-464.7301,-124.37961)">
    <path
       id="path79"
       d="m 0,0 c -5.26,-1.443 -10.698,1.651 -12.141,6.915 -1.442,5.261 1.655,10.698 6.915,12.14 C 0.039,20.498 5.475,17.403 6.917,12.141 8.361,6.877 5.262,1.443 0,0 m 17.359,10.544 c -0.076,1.417 -0.288,2.847 -0.68,4.273 -0.392,1.427 -0.937,2.767 -1.599,4.024 l 4.282,5.825 -7.096,7.014 -5.785,-4.36 c -2.554,1.305 -5.378,2.082 -8.314,2.197 l -2.9,6.608 -9.622,-2.639 0.877,-7.164 c -2.463,-1.595 -4.501,-3.706 -6.032,-6.13 l -7.201,0.796 -2.522,-9.652 6.652,-2.824 c 0.074,-1.417 0.288,-2.85 0.679,-4.275 0.391,-1.424 0.938,-2.765 1.599,-4.023 l -4.281,-5.824 7.093,-7.014 5.79,4.361 c 2.552,-1.307 5.378,-2.084 8.311,-2.197 l 2.901,-6.61 9.623,2.636 -0.88,7.166 c 2.47,1.596 4.501,3.706 6.033,6.131 l 7.199,-0.795 2.524,9.652 z"
       style="fill:#27aae1;fill-opacity:1;fill-rule:nonzero;stroke:none"
       transform="matrix(1.3333333,0,0,-1.3333333,518.43493,172.54627)"
       clip-path="url(#clipPath80)" />
    <path
       id="path81"
       d="M 0,0 C -3.301,-0.905 -6.712,1.036 -7.616,4.338 -8.522,7.64 -6.579,11.05 -3.277,11.955 0.023,12.86 3.436,10.919 4.34,7.617 5.246,4.315 3.303,0.905 0,0"
       style="fill:#4d4753;fill-opacity:1;fill-rule:nonzero;stroke:none"
       transform="matrix(1.3333333,0,0,-1.3333333,517.13667,167.8132)"
       clip-path="url(#clipPath82)" />
    <g
       opacity="0.199997"
       id="g84"
       clip-path="url(#clipPath85)">
      <path
         d="m 0,0 c -3.189,-0.874 -5.103,-4.087 -4.415,-7.28 2.674,2.413 5.446,4.785 8.307,7.07 C 2.69,0.261 1.339,0.368 0,0 M 16.517,16.175 21.1,11.646 C 16.25,8.851 11.563,5.672 7.071,2.263 4.781,3.772 1.88,4.333 -0.975,3.55 -6.235,2.108 -9.332,-3.329 -7.89,-8.59 c 0.135,-0.495 0.317,-0.964 0.52,-1.417 -4.279,-4.023 -8.276,-8.121 -11.942,-12.117 l -1.021,1.009 4.281,5.824 c -0.661,1.258 -1.208,2.599 -1.599,4.023 -0.391,1.425 -0.605,2.858 -0.679,4.275 l -6.652,2.824 2.522,9.652 7.201,-0.796 c 1.531,2.424 3.569,4.535 6.032,6.13 l -0.877,7.164 9.622,2.639 2.9,-6.608 c 2.936,-0.115 5.76,-0.892 8.314,-2.197 z"
         style="fill:#ffffff;fill-opacity:1;fill-rule:nonzero;stroke:none"
         transform="matrix(1.3333333,0,0,-1.3333333,512.76693,151.87307)"
         clip-path="url(#clipPath83)"
         id="path84" />
    </g>
    <path
       id="path86"
       d="m 0,0 h 35.59 c -2.566,5.813 -4.99,12.891 -3.785,16.855 1.703,5.594 8.524,13.603 10.077,24.245 h -62.969 c 0.002,-2.662 -0.572,-6.079 -3.111,-8.395 -4.701,-4.293 -3.678,-6.705 -2.166,-7.932 1.512,-1.226 4.008,-2.289 3.149,-3.843 -0.859,-1.553 -0.899,-3.352 0.612,-4.456 0,0 -0.816,-2.536 1.35,-4.579 2.167,-2.045 1.104,-2.905 0.982,-5.072 -0.123,-2.166 3.189,-5.6 8.996,-4.007 C -7.903,3.744 -3.253,3.326 0,0"
       style="fill:#4d4753;fill-opacity:1;fill-rule:nonzero;stroke:none"
       transform="matrix(1.3333333,0,0,-1.3333333,501.5716,222.91867)"
       clip-path="url(#clipPath87)" />
    <path
       id="path88"
       d="m 416.057,324.735 h -49.256 v 9.661 h 49.256 z"
       style="fill:#27aae1;fill-opacity:1;fill-rule:nonzero;stroke:none"
       transform="matrix(1.3333333,0,0,-1.3333333,0,666.66667)"
       clip-path="url(#clipPath89)" />
  </g>
</svg>
