<?xml version="1.0" encoding="UTF-8" standalone="no"?>
<!-- Created with Inkscape (http://www.inkscape.org/) -->

<svg
   version="1.1"
   id="svg1"
   width="110.30548"
   height="110.30533"
   viewBox="0 0 110.30548 110.30533"
   xmlns="http://www.w3.org/2000/svg"
   xmlns:svg="http://www.w3.org/2000/svg">
  <defs
     id="defs1">
    <clipPath
       clipPathUnits="userSpaceOnUse"
       id="clipPath124">
      <path
         d="M 0,500 H 500 V 0 H 0 Z"
         transform="translate(-289.45611,-263.7681)"
         id="path124" />
    </clipPath>
    <clipPath
       clipPathUnits="userSpaceOnUse"
       id="clipPath126">
      <path
         d="M 0,500 H 500 V 0 H 0 Z"
         transform="translate(-280.97071,-263.7681)"
         id="path126" />
    </clipPath>
    <clipPath
       clipPathUnits="userSpaceOnUse"
       id="clipPath128">
      <path
         d="m 215.214,263.768 c 0,-18.157 14.72,-32.877 32.876,-32.877 v 0 c 18.159,0 32.881,14.72 32.881,32.877 v 0 c 0,18.158 -14.722,32.879 -32.881,32.879 v 0 c -18.156,0 -32.876,-14.721 -32.876,-32.879"
         transform="translate(-235.0288,-261.73101)"
         id="path128" />
    </clipPath>
    <clipPath
       clipPathUnits="userSpaceOnUse"
       id="clipPath129">
      <path
         d="m 206.727,305.133 h 71.002 v -67.069 h -71.002 z"
         transform="translate(-277.72951,-292.60791)"
         id="path129" />
    </clipPath>
    <clipPath
       clipPathUnits="userSpaceOnUse"
       id="clipPath131">
      <path
         d="M 0,500 H 500 V 0 H 0 Z"
         transform="matrix(1.3333333,0,0,-1.3333333,0,666.66667)"
         id="path131" />
    </clipPath>
  </defs>
  <g
     id="layer-MC1"
     transform="translate(-275.63599,-259.82254)">
    <path
       id="path123"
       d="m 0,0 c 0,-22.846 -18.52,-41.364 -41.365,-41.364 -22.843,0 -41.364,18.518 -41.364,41.364 0,22.846 18.521,41.365 41.364,41.365 C -18.52,41.365 0,22.846 0,0"
       style="fill:#4d4753;fill-opacity:1;fill-rule:nonzero;stroke:none"
       transform="matrix(1.3333333,0,0,-1.3333333,385.94147,314.97587)"
       clip-path="url(#clipPath124)" />
    <path
       id="path125"
       d="m 0,0 c 0,-18.157 -14.722,-32.877 -32.88,-32.877 -18.157,0 -32.877,14.72 -32.877,32.877 0,18.158 14.72,32.879 32.877,32.879 C -14.722,32.879 0,18.158 0,0"
       style="fill:#27aae1;fill-opacity:1;fill-rule:nonzero;stroke:none"
       transform="matrix(1.3333333,0,0,-1.3333333,374.6276,314.97587)"
       clip-path="url(#clipPath126)" />
    <path
       id="path127"
       d="M 0,0 H 3.463 V 3.92 H -3.919 V -32.198 H 0 Z m 14.696,-8.055 h -3.919 v -24.143 h 3.919 z m 16.001,5.225 h -3.92 v -31.112 h 3.92 z m 0,39.024 h -3.92 V 5.086 h 3.92 z m -14.695,0 H 12.084 V 3.996 H 9.377 V 0.078 h 6.625 z M 1.307,12.053 h -3.918 v 24.142 h 3.918 z"
       style="fill:#ffffff;fill-opacity:1;fill-rule:nonzero;stroke:none"
       transform="matrix(1.3333333,0,0,-1.3333333,313.37173,317.692)"
       clip-path="url(#clipPath128)" />
    <g
       opacity="0.199997"
       id="g130"
       clip-path="url(#clipPath131)">
      <path
         d="m 0,0 c -7.514,7.722 -18.012,12.525 -29.639,12.525 -22.843,0 -41.364,-18.519 -41.364,-41.365 0,-9.717 3.359,-18.643 8.968,-25.703 C -46.496,-36.316 -24.801,-14.531 0,0"
         style="fill:#ffffff;fill-opacity:1;fill-rule:nonzero;stroke:none"
         transform="matrix(1.3333333,0,0,-1.3333333,370.306,276.5228)"
         clip-path="url(#clipPath129)"
         id="path130" />
    </g>
  </g>
</svg>
