<?xml version="1.0" encoding="UTF-8" standalone="no"?>
<!-- Created with Inkscape (http://www.inkscape.org/) -->

<svg
   version="1.1"
   id="svg1"
   width="149.65453"
   height="121.66199"
   viewBox="0 0 149.65453 121.66199"
   xmlns="http://www.w3.org/2000/svg"
   xmlns:svg="http://www.w3.org/2000/svg">
  <defs
     id="defs1">
    <clipPath
       clipPathUnits="userSpaceOnUse"
       id="clipPath75">
      <path
         d="M 0,500 H 500 V 0 H 0 Z"
         id="path75" />
    </clipPath>
    <clipPath
       clipPathUnits="userSpaceOnUse"
       id="clipPath77">
      <path
         d="M 0,500 H 500 V 0 H 0 Z"
         id="path77" />
    </clipPath>
    <clipPath
       clipPathUnits="userSpaceOnUse"
       id="clipPath79">
      <path
         d="M 0,500 H 500 V 0 H 0 Z"
         id="path79" />
    </clipPath>
    <clipPath
       clipPathUnits="userSpaceOnUse"
       id="clipPath81">
      <path
         d="M 0,500 H 500 V 0 H 0 Z"
         id="path81" />
    </clipPath>
    <clipPath
       clipPathUnits="userSpaceOnUse"
       id="clipPath83">
      <path
         d="M 0,500 H 500 V 0 H 0 Z"
         id="path83" />
    </clipPath>
    <clipPath
       clipPathUnits="userSpaceOnUse"
       id="clipPath85">
      <path
         d="M 0,500 H 500 V 0 H 0 Z"
         id="path85" />
    </clipPath>
    <clipPath
       clipPathUnits="userSpaceOnUse"
       id="clipPath87">
      <path
         d="M 0,500 H 500 V 0 H 0 Z"
         id="path87" />
    </clipPath>
    <clipPath
       clipPathUnits="userSpaceOnUse"
       id="clipPath89">
      <path
         d="M 0,500 H 500 V 0 H 0 Z"
         id="path89" />
    </clipPath>
    <clipPath
       clipPathUnits="userSpaceOnUse"
       id="clipPath91">
      <path
         d="M 0,500 H 500 V 0 H 0 Z"
         id="path91" />
    </clipPath>
    <clipPath
       clipPathUnits="userSpaceOnUse"
       id="clipPath93">
      <path
         d="M 0,500 H 500 V 0 H 0 Z"
         transform="translate(-252.01761,-234.9687)"
         id="path93" />
    </clipPath>
    <clipPath
       clipPathUnits="userSpaceOnUse"
       id="clipPath95">
      <path
         d="M 0,500 H 500 V 0 H 0 Z"
         transform="translate(-208.36521,-190.3623)"
         id="path95" />
    </clipPath>
    <clipPath
       clipPathUnits="userSpaceOnUse"
       id="clipPath97">
      <path
         d="M 0,500 H 500 V 0 H 0 Z"
         transform="translate(-226.04391,-257.93951)"
         id="path97" />
    </clipPath>
    <clipPath
       clipPathUnits="userSpaceOnUse"
       id="clipPath98">
      <path
         d="m 183.59,186.816 h 46.148 V 166.693 H 183.59 Z"
         transform="translate(-188.605,-186.81641)"
         id="path98" />
    </clipPath>
    <clipPath
       clipPathUnits="userSpaceOnUse"
       id="clipPath99">
      <path
         d="m 183.59,186.816 h 46.148 V 166.693 H 183.59 Z"
         transform="translate(-229.73781,-186.81641)"
         id="path99" />
    </clipPath>
    <clipPath
       clipPathUnits="userSpaceOnUse"
       id="clipPath102">
      <path
         d="M 0,500 H 500 V 0 H 0 Z"
         transform="matrix(1.3333333,0,0,-1.3333333,0,666.66667)"
         id="path102" />
    </clipPath>
    <clipPath
       clipPathUnits="userSpaceOnUse"
       id="clipPath103">
      <path
         d="m 197.199,244.683 h 51.177 v -20.125 h -51.177 z"
         transform="translate(-248.37601,-244.09961)"
         id="path103" />
    </clipPath>
    <clipPath
       clipPathUnits="userSpaceOnUse"
       id="clipPath104">
      <path
         d="m 197.199,244.683 h 51.177 v -20.125 h -51.177 z"
         transform="translate(-207.82621,-244.68261)"
         id="path104" />
    </clipPath>
    <clipPath
       clipPathUnits="userSpaceOnUse"
       id="clipPath107">
      <path
         d="M 0,500 H 500 V 0 H 0 Z"
         transform="matrix(1.3333333,0,0,-1.3333333,0,666.66667)"
         id="path107" />
    </clipPath>
    <clipPath
       clipPathUnits="userSpaceOnUse"
       id="clipPath108">
      <path
         d="m 234.729,214.422 h 50.528 v -20.126 h -50.528 z"
         transform="translate(-244.12501,-214.42191)"
         id="path108" />
    </clipPath>
    <clipPath
       clipPathUnits="userSpaceOnUse"
       id="clipPath109">
      <path
         d="m 234.729,214.422 h 50.528 v -20.126 h -50.528 z"
         transform="translate(-285.25681,-214.42191)"
         id="path109" />
    </clipPath>
    <clipPath
       clipPathUnits="userSpaceOnUse"
       id="clipPath112">
      <path
         d="M 0,500 H 500 V 0 H 0 Z"
         transform="matrix(1.3333333,0,0,-1.3333333,0,666.66667)"
         id="path112" />
    </clipPath>
  </defs>
  <g
     id="layer-MC1"
     transform="translate(-244.78666,-322.74733)">
    <path
       id="path74"
       d="m 248.376,224.558 h -51.177 v 20.125 h 51.177 z"
       style="fill:#4d4753;fill-opacity:1;fill-rule:nonzero;stroke:none"
       transform="matrix(1.3333333,0,0,-1.3333333,0,666.66667)"
       clip-path="url(#clipPath75)" />
    <path
       id="path76"
       d="m 204.178,237.112 h -4.42 v 4.42 h 4.42 z"
       style="fill:#3eb4e6;fill-opacity:1;fill-rule:nonzero;stroke:none"
       transform="matrix(1.3333333,0,0,-1.3333333,0,666.66667)"
       clip-path="url(#clipPath77)" />
    <path
       id="path78"
       d="m 211.389,237.112 h -4.42 v 4.42 h 4.42 z"
       style="fill:#3eb4e6;fill-opacity:1;fill-rule:nonzero;stroke:none"
       transform="matrix(1.3333333,0,0,-1.3333333,0,666.66667)"
       clip-path="url(#clipPath79)" />
    <path
       id="path80"
       d="m 285.907,194.296 h -51.179 v 20.126 h 51.179 z"
       style="fill:#3eb4e6;fill-opacity:1;fill-rule:nonzero;stroke:none"
       transform="matrix(1.3333333,0,0,-1.3333333,0,666.66667)"
       clip-path="url(#clipPath81)" />
    <path
       id="path82"
       d="m 241.708,206.853 h -4.42 v 4.42 h 4.42 z"
       style="fill:#4d4753;fill-opacity:1;fill-rule:nonzero;stroke:none"
       transform="matrix(1.3333333,0,0,-1.3333333,0,666.66667)"
       clip-path="url(#clipPath83)" />
    <path
       id="path84"
       d="m 248.919,206.853 h -4.42 v 4.42 h 4.42 z"
       style="fill:#4d4753;fill-opacity:1;fill-rule:nonzero;stroke:none"
       transform="matrix(1.3333333,0,0,-1.3333333,0,666.66667)"
       clip-path="url(#clipPath85)" />
    <path
       id="path86"
       d="M 234.767,166.693 H 183.59 v 20.123 h 51.177 z"
       style="fill:#4d4753;fill-opacity:1;fill-rule:nonzero;stroke:none"
       transform="matrix(1.3333333,0,0,-1.3333333,0,666.66667)"
       clip-path="url(#clipPath87)" />
    <path
       id="path88"
       d="m 190.569,179.247 h -4.42 v 4.42 h 4.42 z"
       style="fill:#3eb4e6;fill-opacity:1;fill-rule:nonzero;stroke:none"
       transform="matrix(1.3333333,0,0,-1.3333333,0,666.66667)"
       clip-path="url(#clipPath89)" />
    <path
       id="path90"
       d="m 197.781,179.247 h -4.42 v 4.42 h 4.42 z"
       style="fill:#3eb4e6;fill-opacity:1;fill-rule:nonzero;stroke:none"
       transform="matrix(1.3333333,0,0,-1.3333333,0,666.66667)"
       clip-path="url(#clipPath91)" />
    <path
       id="path92"
       d="m 0,0 h 15.898 v -16.905 h 2.791 V 2.792 H 0 Z"
       style="fill:#4d4753;fill-opacity:1;fill-rule:nonzero;stroke:none"
       transform="matrix(1.3333333,0,0,-1.3333333,336.02347,353.37507)"
       clip-path="url(#clipPath93)" />
    <path
       id="path94"
       d="m 0,0 v 9.653 h 22.722 v 2.792 H -2.792 V 0 Z"
       style="fill:#4d4753;fill-opacity:1;fill-rule:nonzero;stroke:none"
       transform="matrix(1.3333333,0,0,-1.3333333,277.82027,412.85027)"
       clip-path="url(#clipPath95)" />
    <path
       id="path96"
       d="m 0,0 v -9.615 h 2.792 v 6.823 h 64.203 v -78.859 h -54.63 v -2.792 H 69.787 V 0 Z"
       style="fill:#4d4753;fill-opacity:1;fill-rule:nonzero;stroke:none"
       transform="matrix(1.3333333,0,0,-1.3333333,301.39187,322.74733)"
       clip-path="url(#clipPath97)" />
    <g
       opacity="0.199997"
       id="g101"
       clip-path="url(#clipPath102)">
      <path
         d="M 0,0 -5.015,-5.016 V -20.123 H 1.083 L 21.208,0 Z"
         style="fill:#e6e7e8;fill-opacity:1;fill-rule:nonzero;stroke:none"
         transform="matrix(1.3333333,0,0,-1.3333333,251.47333,417.57813)"
         clip-path="url(#clipPath98)"
         id="path100" />
      <path
         d="m 0,0 h -14.703 l -20.124,-20.123 h 14.704 z"
         style="fill:#e6e7e8;fill-opacity:1;fill-rule:nonzero;stroke:none"
         transform="matrix(1.3333333,0,0,-1.3333333,306.31707,417.57813)"
         clip-path="url(#clipPath99)"
         id="path101" />
    </g>
    <g
       opacity="0.199997"
       id="g106"
       clip-path="url(#clipPath107)">
      <path
         d="m 0,0 v 0.583 h -14.12 l -20.125,-20.125 h 14.703 z"
         style="fill:#e6e7e8;fill-opacity:1;fill-rule:nonzero;stroke:none"
         transform="matrix(1.3333333,0,0,-1.3333333,331.168,341.20053)"
         clip-path="url(#clipPath103)"
         id="path105" />
      <path
         d="m 0,0 -10.627,-10.628 v -9.497 H 1.082 L 21.206,0 Z"
         style="fill:#e6e7e8;fill-opacity:1;fill-rule:nonzero;stroke:none"
         transform="matrix(1.3333333,0,0,-1.3333333,277.1016,340.4232)"
         clip-path="url(#clipPath104)"
         id="path106" />
    </g>
    <g
       opacity="0.199997"
       id="g111"
       clip-path="url(#clipPath112)">
      <path
         d="m 0,0 -9.396,-9.396 v -10.73 H 1.081 L 21.205,0 Z"
         style="fill:#e6e7e8;fill-opacity:1;fill-rule:nonzero;stroke:none"
         transform="matrix(1.3333333,0,0,-1.3333333,325.5,380.7708)"
         clip-path="url(#clipPath108)"
         id="path110" />
      <path
         d="m 0,0 h -14.703 l -20.126,-20.126 h 14.705 z"
         style="fill:#e6e7e8;fill-opacity:1;fill-rule:nonzero;stroke:none"
         transform="matrix(1.3333333,0,0,-1.3333333,380.3424,380.7708)"
         clip-path="url(#clipPath109)"
         id="path111" />
    </g>
  </g>
</svg>
