<?xml version="1.0" encoding="UTF-8" standalone="no"?>
<!-- Created with Inkscape (http://www.inkscape.org/) -->

<svg
   version="1.1"
   id="svg1"
   width="121.68533"
   height="121.68532"
   viewBox="0 0 121.68533 121.68532"
   xmlns="http://www.w3.org/2000/svg"
   xmlns:svg="http://www.w3.org/2000/svg">
  <defs
     id="defs1">
    <clipPath
       clipPathUnits="userSpaceOnUse"
       id="clipPath30">
      <path
         d="m 206.881,333.418 c 0,-20.352 16.499,-36.851 36.852,-36.851 v 0 c 20.353,0 36.852,16.499 36.852,36.851 v 0 c 0,20.353 -16.499,36.853 -36.852,36.853 v 0 c -20.353,0 -36.852,-16.5 -36.852,-36.853"
         transform="translate(-220.3291,-371.98971)"
         id="path30" />
    </clipPath>
    <clipPath
       clipPathUnits="userSpaceOnUse"
       id="clipPath32">
      <path
         d="m 206.881,333.418 c 0,-20.352 16.499,-36.851 36.852,-36.851 v 0 c 20.353,0 36.852,16.499 36.852,36.851 v 0 c 0,20.353 -16.499,36.853 -36.852,36.853 v 0 c -20.353,0 -36.852,-16.5 -36.852,-36.853"
         transform="translate(-258.9727,-322.47901)"
         id="path32" />
    </clipPath>
    <clipPath
       clipPathUnits="userSpaceOnUse"
       id="clipPath33">
      <path
         d="M 181.896,390.717 H 298.085 V 276.256 H 181.896 Z"
         transform="translate(-298.08501,-354.02541)"
         id="path33" />
    </clipPath>
    <clipPath
       clipPathUnits="userSpaceOnUse"
       id="clipPath35">
      <path
         d="m 206.881,333.418 c 0,-20.352 16.499,-36.851 36.852,-36.851 v 0 c 20.353,0 36.852,16.499 36.852,36.851 v 0 c 0,20.353 -16.499,36.853 -36.852,36.853 v 0 c -20.353,0 -36.852,-16.5 -36.852,-36.853"
         transform="matrix(1.3333333,0,0,-1.3333333,0,666.66667)"
         id="path35" />
    </clipPath>
    <clipPath
       clipPathUnits="userSpaceOnUse"
       id="clipPath37">
      <path
         d="M 0,500 H 500 V 0 H 0 Z"
         transform="translate(-243.6172,-374.59721)"
         id="path37" />
    </clipPath>
  </defs>
  <g
     id="layer-MC1"
     transform="translate(-263.98026,-161.17573)">
    <path
       id="path29"
       d="m 0,0 13.901,-12.287 v -9.714 c 1.555,-0.322 2.724,-1.698 2.724,-3.347 0,-1.888 -1.531,-3.418 -3.418,-3.418 -1.888,0 -3.418,1.53 -3.418,3.418 0,1.649 1.169,3.025 2.723,3.347 v 9.086 l -13.927,12.311 -7.396,-19.46 -4.266,-7.29 8.977,-9.931 H 8.702 c 0.32,1.555 1.698,2.724 3.346,2.724 1.888,0 3.419,-1.531 3.419,-3.419 0,-1.888 -1.531,-3.417 -3.419,-3.417 -1.648,0 -3.026,1.168 -3.346,2.722 H -4.717 l -9.097,10.061 -2.184,-3.733 -2.547,-12.98 5.731,-14.601 6.338,7.695 H 6.442 c 0.321,1.554 1.698,2.722 3.347,2.722 1.887,0 3.418,-1.531 3.418,-3.418 0,-1.887 -1.531,-3.418 -3.418,-3.418 -1.649,0 -3.026,1.168 -3.347,2.723 h -12.26 l -6.304,-7.651 7.367,-7.924 16.108,-10.314 v 8.404 c -1.554,0.321 -2.723,1.697 -2.723,3.347 0,1.887 1.531,3.418 3.418,3.418 1.888,0 3.419,-1.531 3.419,-3.418 0,-1.65 -1.17,-3.026 -2.723,-3.347 v -9.295 l 1.504,-0.963 h 9.156 v 92.698 z"
       style="fill:#4d4753;fill-opacity:1;fill-rule:nonzero;stroke:none"
       transform="matrix(1.3333333,0,0,-1.3333333,293.77213,170.6804)"
       clip-path="url(#clipPath30)" />
    <path
       id="path31"
       d="m 0,0 c 1.649,0 3.026,-1.168 3.346,-2.723 h 12.918 l 6.34,-7.694 5.73,14.601 -2.547,12.98 -2.184,3.733 -9.098,-10.061 H 1.086 C 0.766,9.282 -0.611,8.113 -2.259,8.113 c -1.888,0 -3.42,1.53 -3.42,3.418 0,1.888 1.532,3.419 3.42,3.419 1.648,0 3.025,-1.169 3.345,-2.724 H 13.89 l 8.975,9.93 L 18.6,29.447 11.204,48.906 -2.723,36.596 V 27.51 C -1.168,27.188 0,25.812 0,24.163 c 0,-1.888 -1.53,-3.418 -3.418,-3.418 -1.888,0 -3.418,1.53 -3.418,3.418 0,1.649 1.168,3.025 2.723,3.347 v 9.714 l 13.902,12.287 -23.405,11.33 v -92.697 h 9.156 l 1.506,0.963 v 9.295 c -1.555,0.321 -2.725,1.697 -2.725,3.347 0,1.887 1.532,3.418 3.42,3.418 1.888,0 3.418,-1.531 3.418,-3.418 0,-1.65 -1.169,-3.026 -2.722,-3.347 v -8.404 l 16.108,10.314 7.366,7.923 -6.304,7.652 H 3.346 C 3.026,-5.668 1.649,-6.836 0,-6.836 c -1.888,0 -3.418,1.53 -3.418,3.418 C -3.418,-1.531 -1.888,0 0,0"
       style="fill:#3eb4e6;fill-opacity:1;fill-rule:nonzero;stroke:none"
       transform="matrix(1.3333333,0,0,-1.3333333,345.29693,236.69467)"
       clip-path="url(#clipPath32)" />
    <g
       opacity="0.399994"
       id="g34"
       clip-path="url(#clipPath35)">
      <path
         d="m 0,0 -13.425,13.424 -77.768,-77.768 13.424,-13.425 z m -96.827,-60.44 -19.362,19.363 77.769,77.768 19.362,-19.362 z"
         style="fill:#ffffff;fill-opacity:1;fill-rule:nonzero;stroke:none"
         transform="matrix(1.3333333,0,0,-1.3333333,397.44667,194.6328)"
         clip-path="url(#clipPath33)"
         id="path34" />
    </g>
    <path
       id="path36"
       d="m 0,0 c -22.668,0 -41.11,-18.442 -41.11,-41.111 0,-22.668 18.442,-41.11 41.11,-41.11 22.669,0 41.11,18.442 41.11,41.11 C 41.11,-18.442 22.669,0 0,0 m 0,-86.743 c -25.161,0 -45.632,20.471 -45.632,45.632 0,25.162 20.471,45.632 45.632,45.632 25.161,0 45.632,-20.47 45.632,-45.632 0,-25.161 -20.471,-45.632 -45.632,-45.632"
       style="fill:#3eb4e6;fill-opacity:1;fill-rule:nonzero;stroke:none"
       transform="matrix(1.3333333,0,0,-1.3333333,324.82293,167.20373)"
       clip-path="url(#clipPath37)" />
  </g>
</svg>
